<svg width="375" height="776" viewBox="0 0 375 776" xmlns="http://www.w3.org/2000/svg" xmlns:xlink="http://www.w3.org/1999/xlink">
    <defs>
        <linearGradient x1="50%" y1="50.443%" x2="50%" y2="-32.669%" id="ibbjome4ic">
            <stop stop-color="#FFF" offset="0%"/>
            <stop offset="100%"/>
        </linearGradient>
        <linearGradient x1="50%" y1="50.443%" x2="50%" y2="-32.671%" id="341n4yow3d">
            <stop stop-color="#FFF" offset="0%"/>
            <stop offset="100%"/>
        </linearGradient>
        <path id="fzfts65k9a" d="M0 0h375v776H0z"/>
    </defs>
    <g fill="none" fill-rule="evenodd">
        <mask id="d6207heopb" fill="#fff">
            <use xlink:href="#fzfts65k9a"/>
        </mask>
        <g mask="url(#d6207heopb)">
            <g opacity=".48">
                <g opacity=".24" stroke="#B3B3B3" stroke-width="2.087">
                    <path d="M912.986 157.488c39.429-8.735 90.453 5.813 124.512 45.338 34.06 39.524 40.915 111.982 1.327 144.652-46.315 38.219-135.674 36.427-149.129 116.792-12.752 70.196-5.712 130.479 25.06 129.549 30.773-.93 76.417 9.86 85.892 60.567 8.287 44.328-14.86 90.036-47.276 117.849-32.417 27.813-72.776 41.337-122.12 57.825-105.989 35.407-181.142 52.905-243.623 80.1-59.749 19.696-120.031 39.508-182.19 45.084-63.147 5.665-127.73-3.404-196.136 17.635-44.148 13.581-83.006 32.765-122.346 43.926-39.339 11.161-81.812 14.665-123.133-8.609-49.19-27.702-85.554-95.653-123.535-99.093-35.566-3.202-76.48 45.353-115.407 19.242-30.202-20.251-34.535-65.346-40.734-103.697-6.2-38.35-26.556-83.418-61.9-82.287-47.483 1.522-69.446 85.944-116.638 79.962-24.891-3.17-40.692-32.014-44.576-59.283-3.885-27.27.216-55.405-4.265-82.558-15.955-96.646-132.281-150.809-132.589-249.04-.163-40.777 20.976-77.85 44.482-109.357 23.507-31.507 50.543-60.774 66.16-97.767 15.616-36.992 16.958-85.194-8.578-114.72"/>
                    <path d="M908.209 157.346c36.992-12.525 87.08 1.104 120.75 40.131 33.668 39.028 40.459 110.604 1.384 142.883-45.713 37.753-136.551 44.708-146.248 118.35-11.188 68.564-3.34 129.845 25.498 131.695 28.839 1.85 73.843 3.17 83.208 53.275 8.212 43.937-14.74 89.232-46.876 116.791-21.905 18.777-47.472 30.963-76.506 43.551-17.44 9.455-36.412 18.592-53.095 22.915-112.189 29.04-186.84 41.315-236.754 69.995-7.795 3.171-16.637 6.728-26.588 9.93-49.58 15.955-99.706 30.34-151.073 34.81-62.486 5.534-126.373-3.519-196.59 19.818-33.093 10.992-63.829 23.575-93.777 33.42-11.098 3.642-21.768 6.823-32.115 9.413-38.304 9.58-80.581 11.71-120.491-12.409-47.483-28.706-80.76-96.266-118.689-101.291-26.043-3.451-49.618 30.947-78.959 33.911-11.552-.185-22.629-2.727-32.907-9.607-29.901-20.003-34.256-64.547-40.45-102.439-6.193-37.89-26.37-82.44-61.344-81.336-47.023 1.453-68.812 84.787-115.492 78.842-24.626-3.14-40.306-31.671-44.174-58.623-3.869-26.952.116-54.77-4.365-81.611-15.94-95.537-131.008-149.113-131.496-246.22-.236-40.327 20.533-76.997 43.648-108.172 23.115-31.174 49.687-60.203 65.044-96.794 15.357-36.591 16.589-84.338-8.672-113.62"/>
                    <path d="M903.436 156.79c34.932-15.283 83.705-3.197 116.977 35.34 33.272 38.535 40.01 109.223 1.448 141.1-45.11 37.3-136.963 52.319-144.748 123.71-8.186 62.597.735 124.766 27.634 130.003 26.9 5.237 70.889-2.5 80.211 46.035 8.133 43.54-14.623 88.424-46.473 115.708-21.758 18.624-49.322 33.236-88.323 54.797-18.307 10.12-37.421 17.767-54.036 20.806-111.75 20.452-185.62 27.708-227.004 57.762-7.774 2.996-14.38 7.235-22.777 10.966-47.23 16.509-97.006 30.762-147.971 35.053-61.831 5.406-125.02-3.636-197.33 21.894-34.066 12.028-64.928 23.866-95.004 32.882-11.134 3.34-21.873 6.199-32.236 8.455-38.462 8.34-80.502 9.132-118.985-15.759-45.787-29.594-76.062-96.636-113.79-102.206-25.895-3.82-50.706 29.5-76.59 37.638-11.437-.18-22.397-2.695-32.576-9.513-29.594-19.754-33.97-63.749-40.163-101.18-6.194-37.432-28.955-82.505-60.774-80.386-46.506 1.411-68.099 83.662-114.308 77.754-24.373-3.123-39.91-31.322-43.778-57.962-3.869-26.64 0-54.137-4.466-80.666-15.923-94.427-129.734-147.443-130.404-243.392-.34-39.878 20.086-76.141 42.773-106.993 22.687-30.852 48.878-59.57 63.945-95.812s16.219-83.498-8.773-112.532"/>
                    <path d="M898.68 155.813c32.845-17.772 80.328-7.097 113.188 30.952 32.86 38.05 39.56 107.84 1.516 139.331-44.867 38.615-137.137 59.342-143.368 128.783-5.063 56.393 5.216 119.339 30.218 127.778 25.002 8.44 67.575-5.649 76.876 39.572 8.054 43.144-14.5 87.62-46.294 115.027-23.252 20.747-58.66 45.252-99.235 65.255-19.025 9.386-38.214 15.569-54.692 17.36-110.793 12.055-183.632 14.496-220.847 46.05-5.448 3.34-11.235 7.875-19.585 11.627-41.606 18.66-91.044 32.665-141.63 36.903-61.175 5.126-123.661-3.752-197.647 23.84-34.847 13-65.805 24.113-95.975 32.326-11.172 3.039-21.947 5.586-32.369 7.504-38.578 7.108-80.327 6.58-117.41-19.025-44.095-30.45-71.47-96.784-109.028-102.866-25.79-4.175-51.79 28.04-76.005 39.286-10.183 1.68-21.027-.798-31.1-7.504-29.298-19.5-33.69-62.951-39.873-99.928s-34.768-83.784-63.416-80.671c-42.78 2.642-64.204 83.789-109.922 77.907-24.119-3.102-39.508-30.974-43.382-57.302-3.873-26.328-.095-53.492-4.566-79.709-15.885-93.322-128.45-145.725-129.308-240.57-.441-39.423 19.561-75.285 41.905-105.81 22.344-30.524 48.038-58.96 62.824-94.828 14.787-35.867 15.854-82.631-8.862-111.444"/>
                    <path d="M893.935 154.481c31.052-19.305 76.908-10.6 109.393 26.952 32.485 37.553 39.106 106.46 1.585 137.555-44.782 41.047-137.29 66.228-141.825 131.774-3.868 53.64 9.787 115.365 32.955 126.89 23.168 11.527 64.061-6.34 72.929 35.995 8.297 40.634-14.068 84.697-48.048 116.263-27.935 27.544-66.71 53.745-107.576 70.693-19.183 7.959-38.319 12.683-54.58 13.28-109.35 3.895-180.921 1.75-217.317 33.701-4.296 3.773-7.641 9.608-13.397 14.67-37.442 20.68-86.536 34.51-136.693 38.61-60.515 4.947-124.64.196-198.276 26.952-34.694 12.615-65.7 23.041-95.933 30.477-11.193 2.748-22.006 4.983-32.448 6.574-38.647 5.893-80.111 4.064-117.95-22.063-40.242-31.28-64.827-96.81-102.248-103.374-25.704-4.508-52.82 26.571-76.4 39.519-8.572 4.708-19.305 2.262-29.272-4.355-28.997-19.252-33.41-62.153-39.593-98.67-6.183-36.518-41.448-85.522-67.908-81.686-37.273 4.508-58.523 84.592-103.744 78.742-23.855-3.091-39.107-30.625-42.98-56.641-3.874-26.017-.201-52.847-4.662-78.742-15.885-92.223-127.197-144.045-128.228-237.763-.544-38.97 19.11-74.425 41.031-104.637 21.921-30.213 47.208-58.343 61.715-93.846 14.49-35.893 15.49-81.796-8.984-110.35"/>
                    <path d="M889.511 154.053c29.283-21.186 73.177-15.03 105.271 22.037 32.094 37.067 38.658 105.081 1.639 135.78-44.582 43.27-138.052 74.281-140.235 134.29-2.875 50.991 14.507 111.242 35.936 125.717 21.43 14.474 60.457-4.725 68.542 34.878 8.614 36.555-14.554 82.69-53.375 123.424-30.91 29.595-70.334 52.98-111.306 66.931-19.236 6.553-38.25 9.898-54.232 9.306-107.432-3.99-177.533-10.49-214.442 21.387-4.36 3.768-6.695 10.533-12.43 15.77-28.59 26.09-77.335 39.746-127.09 43.71-59.86 4.756-125.655 4.671-198.53 30.165-34.351 12.006-65.351 21.778-95.616 28.463-11.204 2.473-22.032 4.402-32.48 5.67-38.679 4.693-79.799 1.586-116.163-25.234-38.62-31.861-60.525-96.44-97.857-103.453-25.636-4.82-53.84 25.086-77.684 37.992-8.673 4.692-17.287 6.812-27.148.28-28.701-19.025-33.13-61.356-39.307-97.418-9.212-36.819-49.344-87.922-73.352-83.409-32.236 6.062-51.848 86.14-96.578 80.328-23.601-3.07-38.705-30.276-42.584-55.976-3.879-25.7-.3-52.223-4.756-77.817-15.86-91.092-125.712-142.353-127.12-234.941-.563-38.52 18.63-73.574 40.177-103.443 21.545-29.869 46.373-57.735 60.599-92.867 14.184-37.115 15.273-82.272-9.068-109.256"/>
                    <path d="M885.114 153.224c27.888-21.953 69.43-19.057 101.128 17.518 31.698 36.576 38.203 103.702 1.707 134.01-44.566 46.637-138.5 81.574-139.637 137.438-2.912 49.333 19.817 106.328 40.195 123.134 19.844 17.302 56.916-.777 63.823 36.992 8.334 33.12-16.134 81.644-59.796 130.532-32.01 27.634-71.872 48.234-112.786 59.273-19.199 5.185-38.012 7.172-53.64 5.454-105.07-11.579-173.533-22.164-211.942 9.19-4.534 3.7-6.806 10.945-9.919 18.327-23.057 30.62-70.598 44.74-119.962 48.572-59.189 4.592-126.204 8.847-198.23 33.156-33.937 11.452-64.922 20.61-95.182 26.582a316.986 316.986 0 0 1-32.48 4.799c-38.667 3.514-79.402-.846-114.302-28.29-37.04-32.336-56.403-95.848-93.687-103.289-25.61-5.115-54.844 23.602-79.201 35.936-8.858 4.492-17.287 7.203-25.541 4.672-28.242-18.306-32.691-60.113-38.864-95.716-15.563-37.907-59.569-91.6-79.27-86.046-30.652 5.681-44.714 88.582-88.947 82.8-23.348-3.059-38.303-29.926-42.188-55.314-3.884-25.388-.406-51.584-4.861-76.866-15.855-89.993-124.418-140.646-126.024-232.103-.672-38.05 18.137-72.712 39.27-102.259 21.134-29.547 45.544-57.075 59.506-91.843 14.004-39.413 15.188-83.101-9.143-108.161"/>
                    <path d="M880.712 151.94c26.688-22.101 65.678-22.63 96.98 13.46 31.3 36.089 37.753 102.316.967 137.819-43.932 45.712-137.74 82.557-138.86 135.288-3.758 48.376 24.452 101.778 45.31 119.577 18.407 20.018 53.534 4.698 58.94 42.705 7.705 29.166-19.749 84.455-65.667 133.296-32.96 25.668-73.114 43.546-113.764 51.79-19.083 3.858-37.61 4.55-52.847 1.749-102.29-18.83-168.972-33.235-209.025-2.325-4.756 3.651-7.398 11.034-10.981 18.343-17.757 36.417-62.064 52.783-111.01 56.472-58.54 4.418-126.305 12.73-197.384 35.968-33.489 10.95-64.404 19.553-94.622 24.838a293.127 293.127 0 0 1-32.448 3.953c-38.615 2.362-78.932-3.219-112.374-31.222-35.492-32.734-52.445-95.061-89.744-102.904-25.62-5.39-55.833 22.1-80.692 33.912-9.037 4.297-17.593 6.87-25.726 4.709-26.56-13.571-31.026-54.829-37.955-90.115-21.862-39.106-68.938-95.584-87.958-90.585-26.846 6.125-34.002 93.058-77.743 87.309-23.094-3.044-37.907-29.595-41.791-54.655-3.885-25.06-.529-50.95-4.963-75.92-17.592-94.342-123.107-138.955-124.93-229.276-.76-37.616 17.656-71.871 38.393-101.08 20.738-29.208 44.709-56.504 58.365-91.076 13.956-43.06 15.288-84.555-9.228-106.894"/>
                    <path d="M876.32 150.206c25.795-21.345 61.921-25.752 92.821 9.835s37.3 100.937 1.855 133.76c-45.19 54.206-138.158 91.135-141.836 144.695-3.17 43.831 31.29 92.947 52.747 111.592 17.16 22.624 50.39 11.494 54.157 50.627 6.374 27.75-23.887 87.118-71.084 133.174-33.775 23.713-74.023 38.954-114.255 44.46-18.888 2.585-37.067 2.03-51.79-1.796-99.125-25.721-163.915-43.657-205.786-13.138-4.941 3.604-8.07 11.098-11.135 19.342-15.262 40.946-56.197 60.155-104.742 63.712-57.883 4.228-125.956 16.314-196.062 42.188-32.966 6.901-63.76 15.008-93.899 19.67a269.245 269.245 0 0 1-32.374 3.17c-38.525 1.247-78.393-5.533-110.391-34.023-33.976-33.05-48.678-94.067-86.051-102.311-25.673-5.655-56.8 20.61-82.156 31.85-9.222 4.09-17.91 6.559-26.043 4.424-25.282-8.852-29.768-49.565-41.02-85.168-26.074-40.164-75.755-100.013-93.692-95.532-24.098 6.02-22.724 98.613-65.984 92.895-22.83-3.028-37.522-29.23-41.39-53.994-3.868-24.764-.613-50.31-5.063-74.969-20.446-102.961-121.785-137.254-123.825-226.449-.851-37.156 17.175-70.994 37.521-99.88 20.346-28.886 43.863-55.896 57.16-91.874 14.384-48.223 15.98-86.764-9.233-104.024"/>
                    <path d="M871.903 148.023c25.134-19.981 58.845-27.269 88.687 6.68 30.514 35.106 36.85 99.558 2.04 134.59-45.84 58.55-138.29 95.796-142.306 145.456-4.36 42.326 36.348 87.267 55.49 109.51 19.14 22.243 50.468 15.114 52.645 56.345 4.677 28.738-27.813 88.476-76.067 131.848-34.435 21.794-74.615 34.488-114.271 37.405-18.618 1.369-36.375-.37-50.596-5.163-95.594-32.237-158.424-53.376-202.313-23.221-5.185 3.567-8.784 11.203-11.627 20.261-14.157 45.105-51.716 67.74-99.88 71.159-57.223 4.064-125.179 19.606-194.065 44.624-32.485 6.52-63.11 14.184-93.132 18.28a248.219 248.219 0 0 1-32.273 2.401c-38.394.172-77.78-7.771-108.337-36.694-32.5-33.294-45.13-92.9-82.641-101.508-25.769-5.909-57.757 19.083-83.604 29.763-9.396 3.884-18.217 6.23-26.381 4.133-24.474-4.492-28.982-44.656-46.69-80.951-30.403-41.75-82.178-105.694-98.074-101.345-21.355 5.813-10.664 105.393-53.418 99.706-22.576-3.012-37.098-28.88-40.988-53.333-3.89-24.452-.724-49.676-5.95-77.235C-515.376 467.98-611.51 448.379-613.782 360.33c-.94-36.707 16.7-70.143 36.644-98.712 19.945-28.57 43.039-55.289 55.997-93.877 15.162-51.912 17.117-88.783-9.254-99.955"/>
                    <path d="M867.58 145.73c24.389-18.94 55.796-28.654 84.48 3.625 30.124 34.615 36.402 98.18 2.31 135.642-46.975 64.473-137.972 99.458-143.067 145.789-6.135 41.152 39.894 82.859 60.727 104.954 19.178 23.733 48.619 20.425 49.316 63.643 2.854 30.852-31.528 89.666-80.607 130.416-34.958 19.918-74.91 30.18-113.843 30.651-18.28.222-35.555-2.642-49.2-8.329-91.742-38.314-152.59-62.412-198.736-32.559-5.449 3.525-9.544 11.273-12.477 20.98-14.618 48.387-48.524 75.477-96.266 78.743-56.546 3.884-123.99 22.597-191.58 46.87-31.952 6.198-62.36 13.486-92.23 17.08a226.67 226.67 0 0 1-32.125 1.707c-38.224-.846-77.098-9.925-106.222-39.213-31.069-33.447-41.834-91.547-79.556-100.515-25.895-6.167-58.66 17.55-85.015 27.655-9.57 3.673-18.528 5.893-26.735 3.837-24.5-3.404-30.894-41.11-54.506-77.479-32.792-43.292-85.168-111.026-100.462-107.77-20.547 4.37 1.12 113.144-41.141 107.49-22.323-2.997-36.702-28.537-40.592-52.667-3.89-24.13-3.398-53.106-8.656-82.415-24.611-122.293-115.809-124.518-118.282-211.462-1.03-36.253 16.218-69.282 35.772-97.523 19.553-28.242 42.172-54.961 54.887-98.116 16.192-52.926 18.396-88.212-9.37-93.634"/>
                    <path d="M863.416 143.917c23.448-18.819 52.725-30.36 81.199 1.776 28.632 32.443 34.852 95.124 1.538 137.122-47.827 67.501-137.08 100.24-146.059 146.93-7.292 37.907 45.026 75.518 68.231 96.8 19.395 25.102 47.007 25.44 46.394 70.529 1.084 32.85-34.995 90.738-84.666 128.946-35.344 18.122-74.905 26.08-112.986 24.257-17.878-.85-34.615-4.756-47.647-11.277-87.589-43.97-146.486-70.688-195.143-41.158-5.744 3.488-10.357 11.32-13.676 21.44-16.52 50.432-46.564 83.25-93.904 86.394-56.018 4.128-122.41 25.293-188.6 48.92-31.37 5.946-61.498 12.932-91.166 16.098a208.63 208.63 0 0 1-31.946 1.089c-38.018-1.808-76.348-11.98-104.108-41.575-29.69-33.526-38.816-90.014-76.063-101.995-26.867-3.762-60.346 18.677-87.15 28.189-9.745 3.461-18.84 5.549-27.105 3.535-24.737-3.324-36.665-36.992-63.945-74.799-35.433-45.374-85.11-115.782-101.175-114.73-21.561 1.405 10.66 120.628-29.314 116.22-22.064-2.98-36.295-28.183-40.19-52.006-4.756-25.07-8.022-60.045-12.863-91.082-22.196-127.361-110.37-113.23-113.055-199.027-1.126-35.803 15.737-68.426 34.878-96.345 19.142-27.919 41.385-57.006 54.121-105.435 17.223-50.437 19.553-84.158-9.808-84.238"/>
                    <path d="M859.22 141.624c22.814-17.657 50.204-30.7 77.209-.83 27.86 31.502 34.324 95.013 1.585 140.573-48.492 69.018-135.652 99.616-147.66 144.546-9.75 36.465 46.427 72.58 74.277 90.754 19.812 26.35 45.707 30.17 43.953 77.04-.608 34.747-38.15 91.732-88.191 127.584a213.887 213.887 0 0 1-111.724 18.274c-17.44-1.85-33.573-6.69-45.945-14.004-83.186-49.148-140.224-78.214-191.665-49.005-6.077 3.445-11.235 11.346-14.998 21.847-18.745 52.318-45.977 90.69-92.9 93.697-55.985 7.214-120.453 27.687-185.148 50.733-30.736 5.755-60.526 12.525-89.94 15.352a191.635 191.635 0 0 1-31.709.529c-37.775-2.69-75.539-13.92-101.915-43.752-28.379-33.526-36.152-88.323-73.69-100.653-27.168-4.069-61.27 17.08-88.534 26.006-9.903 3.24-19.146 5.2-27.48 3.219-25.008-3.26-43.705-33.933-75.402-73.135-37.675-47.853-81.675-119.524-98.338-120.83-22.386-1.754 13.994 124.941-19.373 124.72-21.805-2.97-35.894-27.84-42.13-54.908-6.5-27.423-11.78-66.635-16.383-101.916-16.345-125.564-103.31-96.18-106.222-180.858-1.215-35.354 15.257-67.57 34.018-95.166 18.76-27.597 40.639-61.086 54.104-113.093 17.794-47.181 20.156-79.397-10.934-74.725"/>
                    <path d="M855.029 138.854c22.285-16.16 48.164-29.985 73.34-2.769 27.201 30.895 33.907 95.4 1.644 144.912-49.147 69.514-133.67 97.238-173.77 142.718 10.294 34.562 70.19 69.42 100.487 86.79 23.74 23.998 48.947 30.25 46.257 78.822-2.177 36.554-40.956 92.688-91.14 126.304a202.694 202.694 0 0 1-110.08 12.752c-16.91-2.759-32.432-8.456-44.116-16.478C579.094 658 523.758 626.99 469.22 655.77c-6.443 3.398-12.156 11.34-16.505 22.058-21.625 53.376-47.145 96.842-93.053 100.674-55.774 10.405-118.17 29.752-181.265 52.366-30.048 5.628-59.42 12.26-88.529 14.839a174.776 174.776 0 0 1-31.449.106c-37.521-3.472-74.667-15.712-99.685-45.729-27.163-33.436-33.901-86.489-71.803-99.172-27.48-4.387-62.127 15.49-89.84 23.813-10.04 3.022-19.442 4.84-27.871 2.896-27.935-1.781-53.73-31.761-87.726-72.4-38.272-50.253-75.994-122.294-93.01-126.009-22.883-4.994 13.74 127.33-15.516 128.973-17.376.793-32.676-25.366-41.02-55.843-8.9-31.217-15.458-74.641-18.121-109.462-9.513-123.952-96.895-80.665-100.013-164.2-1.305-34.88 14.797-66.714 33.14-93.978 18.343-27.264 39.9-69.816 54.586-120.2 18.131-43.98 20.43-74.747-12.287-66.498"/>
                    <path d="M850.764 135.636c21.752-14.718 46.373-28.654 70.947-1.728 25.673 29.066 32.115 93.01.322 148.257-50.088 69.398-131.086 92.704-176.038 136.075 6.252 35.228 69.679 69.14 105.102 83.07 24.426 24.97 50.146 32.438 46.764 82.626-3.61 38.293-43.366 93.645-93.47 125.247a191.834 191.834 0 0 1-108.083 7.748c-16.382-3.573-31.206-10.041-42.177-18.687-73.748-58.09-127.635-90.85-185.566-62.57-6.87 3.34-13.154 11.303-18.137 22.121-24.838 53.904-49.375 102.375-94.306 107.131-55.267 13.212-115.57 31.502-176.957 53.735-29.304 5.554-58.19 12.155-86.928 14.575-10.355.936-20.776.86-31.116-.227-37.168-4.138-73.732-17.323-97.424-47.462-26.064-33.262-32.136-84.555-70.471-97.619-27.819-4.708-62.888 13.91-91.008 21.62-10.215 2.806-19.738 4.492-29.97 3.435-32.97.809-63.754-31.254-99.177-73.531-36.506-51.864-68.14-123.662-85.31-129.83-23.063-8.27 9.707 127.14-15.606 130.358-14.903 2.49-30.8-25.15-40.206-58.454-9.967-34.065-17.62-82.7-17.836-115.903-.745-118.182-90.072-62.418-93.386-144.817-1.416-34.461 14.269-65.858 32.237-92.799 17.91-27.163 39.709-79.307 55.49-126.695 18.31-41.004 20.44-70.387-13.905-59.284"/>
                    <path d="M846.483 131.974c21.229-13.318 45.026-26.392 68.701-.238 24.088 27.026 30.652 92.561-.898 151.327-50.765 68.659-128.022 87.847-177 128.946 1.332 35.35 67.697 68.818 103.87 83.82 29.547 21.488 55.918 29.997 52.107 81.74-4.861 39.978-45.326 94.648-95.124 124.406a181.265 181.265 0 0 1-105.752 3.319c-15.764-4.28-29.916-11.42-40.163-20.61-68.802-61.779-121.58-96.007-183.215-68.358-7.283 3.266-14.19 11.225-19.818 22.116-28.009 54.258-52.815 106.566-96.562 112.887-54.5 15.637-112.696 32.913-172.28 54.828-28.5 5.528-56.822 12.155-85.084 14.55a146.534 146.534 0 0 1-30.72-.434c-36.792-4.64-72.723-18.708-95.124-48.915-25.119-32.998-30.958-82.574-69.758-96.023-29.732-4.46-63.945 12.514-94.184 20.452-10.982 2.885-21.535 4.893-33.515 4.703-35.82 2.204-70.414-33.172-108.902-77.912-31.391-52.097-57.186-123.107-74.25-131.716-22.925-11.547 3.044 124.518-19.553 128.376-12.462 4.111-28.87-25.504-38.684-61.646-11.278-38.192-15.78-86.923-13.82-118.335 4.524-116.178-85.612-45.089-89.152-126.357-1.485-33.996 13.824-65.001 31.39-91.61 17.593-29.805 40.164-88.117 56.753-132.56 18.322-38.188 20.187-66.25-15.637-53.223"/>
                    <path d="M842.118 127.883c20.706-11.959 43.905-23.728 66.149.904 23.29 26.714 29.71 93.344-1.522 154.398-51.225 67.844-124.523 83.202-176.8 121.938-4.185 34.816 62.127 70.461 100.018 85.549 35.635 17.239 61.668 27.914 59.115 79.545-5.908 41.628-46.796 95.738-96.08 123.879-35.213 10.833-70.874 9.908-103.11-.481-15.136-4.878-28.57-12.573-38.05-22.228-63.765-64.901-118.287-101.857-181.524-73.536-7.753 3.17-15.262 11.098-21.535 22.042-31.233 54.49-56.869 110.054-99.664 117.849-53.508 17.672-109.6 33.98-167.324 55.626-27.65 5.555-55.315 12.256-83.065 14.745a134.833 134.833 0 0 1-30.244-.481c-36.353-4.957-71.64-19.818-92.788-50.025-24.4-32.649-30.461-80.623-69.758-94.474-33.939-3.393-68.141 12.493-100.536 20.805-11.759 3.018-23.422 5.428-35.72 5.375-39.46 4.048-77.235-37.104-114.9-83.593-26.364-51.822-46.605-121.506-63.33-132.509-22.471-14.797-7.061 118.261-26.25 123.197-10.876 5.02-27.01-26.423-37.114-66.302-10.105-39.878-10.4-86.547-6.537-116.036.644-132.714-83.282-28.933-87.05-109.07-1.585-33.547 13.344-64.14 30.52-90.432 17.285-34.852 41.13-96.245 58.342-137.782 18.2-35.556 19.733-62.36-17.07-49.227"/>
                    <path d="M837.669 123.38c20.409-9.971 42.806-21.138 64.652 4.096 21.847 25.235 28.189 94.015-2.853 155.1-51.711 67.74-120.64 78.743-175.89 114.911-9.687 33.764 55.23 72.295 97.592 85.047 37.378 17.328 64.716 28.437 64.114 79.38-6.707 43.246-47.71 96.927-96.256 123.705-34.784 9.861-69.335 7.8-100.176-3.599-14.486-5.359-27.185-13.481-35.936-23.517-63.834-69.23-131.874-115.349-180.641-78.213-8.25 3.06-16.383 10.94-23.253 21.9-34.393 54.606-61.302 112.96-103.443 121.912-52.318 19.32-106.322 34.7-162.102 56.113-26.751 5.596-53.677 12.456-80.792 15.125a125.295 125.295 0 0 1-29.674-.386c-35.82-5.036-70.45-20.552-90.4-50.69-23.982-32.238-30.736-78.811-73.737-91.991-37.521-2.405-72.062 12.725-105.012 20.784-11.991 2.928-24.838 5.771-39.06 6.67-42.377 1.97-81.827-43.219-116.416-90.723-21.63-51.029-36.66-118.905-52.847-132.254-21.72-17.937-18.802 108.917-36.464 113.42-8.455 6.78-25.07-28.13-32.432-68.173-7.362-40.042-3.794-84.296 1.68-111.776-.871-150.033-82.97-14.163-86.959-93.17-1.67-33.092 12.863-63.284 29.821-89.84 16.843-44.74 42.754-103.648 60.04-141.766 17.968-33.114 19.067-58.766-18.2-46.844"/>
                    <path d="M833.108 118.487c20.298-7.557 41.966-18.163 63.04 7.161 21.293 25.768 27.164 95.922-4 157.917-52.212 66.587-116.078 72.194-173.913 105.572-14.972 32.237 45.976 75.19 93.65 85.084 38.44 18.126 68.341 28.278 69.942 78.435-7.229 44.84-48.037 98.253-95.615 123.91-34.214 9.1-67.565 6.152-96.964-5.987-13.809-5.703-25.768-14.132-33.753-24.447-73.114-74.985-152.236-131.25-180.737-82.362-8.767 2.917-17.481 10.733-24.996 21.667-37.469 54.623-66.059 115.254-107.718 125.073-50.929 20.594-102.893 35.074-156.675 56.276-25.81 5.655-51.927 12.71-78.309 15.643a117.119 117.119 0 0 1-28.986-.137C42.93 777.446 8.97 761.47-9.89 731.485c-23.966-31.851-31.83-77.252-80.169-89.158-40.131-1.686-74.81 12.683-110.323 21.46-12.89 3.172-25.726 5.925-41.32 7.516-43.214-3.779-84.852-50.966-114.557-98.528-17.154-49.808-27.332-115.428-42.727-131.06-20.679-20.98-29.224 98.49-47.789 100.213-8.101 6.712-22.513-29.594-26.28-68.273-3.769-38.678 3.281-80.205 8.513-109.17 2.357-160.766-82.97 2.578-87.16-75.292-1.76-32.643 12.381-62.428 29.065-92.207 17.17-51.716 44.883-107.232 62.032-142.18 17.624-30.851 18.237-55.42-19.453-44.729"/>
                    <path d="M828.43 113.218c20.252-5.284 41.46-14.464 61.594 10.337 20.864 26.514 26.339 98.422-4.888 160.126-52.409 65.435-111.227 66.017-170.659 96.816-20.446 29.837 34.113 78.398 82.15 90.083 43.335 15.796 77.094 23.664 81.987 71.903-7.451 46.416-47.726 99.712-94.115 124.497-33.505 8.556-65.556 4.983-93.47-7.61-13.117-5.914-24.341-14.501-31.597-24.997-84.09-80.073-169.03-146.449-181.878-86.14-9.296 2.764-18.586 10.5-26.698 21.45-40.423 54.56-70.884 116.919-112.31 127.266-49.497 21.43-99.432 35.032-151.18 56.018-24.838 5.723-50.077 12.995-75.64 16.245a111.295 111.295 0 0 1-28.172.238c-34.292-4.392-67.533-20.484-85.522-50.231-24.42-31.566-34.567-75.84-88.054-86.294-43.392-.666-78.958 13.36-116.326 22.613-13.56 3.362-27.554 6.601-43.393 8.356-44.502-11.098-84.46-59.638-109.488-106.799-12.974-48.18-18.697-111.153-35.022-130.637-21.92-26.165-36.369 88.867-55.536 87.726-8.984 5.237-19.934-30.763-20.378-67.782-.444-37.02 9.512-75.687 12.313-119.164 9.883-154.762-82.573 21.841-86.854-46.812-1.95-31.322 11.965-61.228 28.115-96.393 18.3-55.24 47.478-107.22 64.32-139.272 17.202-28.78 17.27-52.34-20.827-42.88"/>
                    <path d="M823.6 107.595c20.236-3.17 41.036-10.976 61.118 15.463 20.082 26.44 24.838 98.55-6.262 159.815-52.319 64.256-106.148 60.245-165.78 89.094-26.255 26.265 20.974 79.931 71.982 91.425 43.377 17.857 81.294 23.253 88.783 70.038-5.227 45.898-44.608 99.226-89.576 123.398-32.654 8.233-63.326 4.286-89.723-8.456-12.398-5.992-22.883-14.585-29.452-25.144-96.245-83.651-182.37-160.031-190.064-93.307-4.027 6.379-13.867 14.026-22.544 24.955-43.229 54.432-75.724 117.975-117.045 128.502-47.959 21.9-95.928 34.641-145.625 55.42-23.882 5.814-48.176 13.281-72.84 16.875a106.391 106.391 0 0 1-27.242.692c-33.246-3.742-65.61-19.416-83.276-48.889-25.192-31.465-39.572-74.244-98.163-83.022-46.474.412-82.832 14.152-121.262 23.628-13.947 3.44-28.062 6.674-45.771 9.417-45.031-19.923-80.856-68.992-101.466-115.27-9.116-46.188-15.083-108.817-35.487-136.524-27.417-37.263-34.493 85.633-53.94 81.558-9.656 3.7-17.345-31.676-14.798-66.724 2.547-35.048 5.523-84.756 11.7-126.193 22.09-147.501-79.069 33.928-84.243-24.31-2.425-28.58 11.362-59.965 26.868-104.89 20.414-52.8 50.336-100.41 66.428-127.773 17.006-28.934 16.425-51.568-21.995-43.335"/>
                    <path d="M818.601 101.634c20.267-1.146 40.692-7.673 60.394 19.474 19.701 27.148 23.924 99.353-6.87 160.127-51.89 63.078-100.938 54.796-159.65 82.377-31.867 21.578 7.176 79.799 55.404 95.653s88.508 21.028 100.409 64.262c-2.642 45.247-40.787 98.744-84.111 122.541-31.65 8.139-60.848 4.064-85.686-8.56-11.669-5.93-21.419-14.386-29.436-25.484C563.89 527.501 477.84 440.933 465.257 507.8c-1.49 7.895-2.801 22.296-12.002 33.198-45.85 54.327-80.444 118.42-121.76 128.762-46.394 21.984-92.481 33.885-140.117 54.432-22.915 5.845-46.236 13.54-69.964 17.476a101.994 101.994 0 0 1-26.239 1.174c-32.057-3.023-63.305-17.789-81.48-46.992-26.005-31.396-46.23-72.12-108.483-79.471-48.868 1.316-86.347 14.892-126.986 25.134-14.744 3.7-29.896 7.435-46.918 8.603-44.92-28.098-75.396-76.902-91.837-121.87-5.602-43.863-20.082-111.417-39.635-144.372-26.244-44.286-28.088 84.655-47.52 77.632-10.168 2.05-14.797-32.332-9.512-65.155 2.161-36.893-3.208-105.08 7.282-141.133 37.347-128.312-72.723 52.022-79.683 3.282-2.986-26.064 10.041-60.22 26.466-113.093 21.805-48.502 52.123-91.906 67.924-118.905 16.182-25.176 14.924-46.97-23.781-39.952"/>
                    <path d="M813.412 95.361c20.356.714 40.396-4.576 59.807 23.221 19.41 27.798 23.3 101.995-7.335 161.712-50.913 60.41-95.315 48.201-151.745 75.513-36.052 17.201-7.282 77.685 40.65 95.71 47.932 18.027 89.961 24.014 108.42 61.256.164 44.513-36.348 98.295-77.8 121.928-30.488 8.255-58.132 4.265-81.385-7.98a101.995 101.995 0 0 1-32.136-25.292c-109.673-83.8-200.464-172.752-219.737-119.884-2.817 7.15 4.618 30.26 2.113 46.564C406.01 582.335 369.35 646.4 327.96 656.178c-44.85 21.667-89.105 32.765-134.76 53.048-21.957 5.881-44.3 13.771-67.073 18.026a97.735 97.735 0 0 1-25.218 1.638c-30.857-2.325-61.26-16.182-80.158-44.814-26.74-31.148-52.8-69.515-120.1-74.874-50.59 2.088-89.55 15.722-131.14 25.05-15.262 5.068-31.792 9.465-48.402 2.542-42.23-30.16-67.612-78.134-80.206-121.41-2.436-41.306-24.31-112.765-42.277-150.202-24.088-50.3-22.413 81.976-41.475 72.03-10.495.375-12.27-32.765-9.607-70.286-5.966-51.928-2.494-115.376 10.966-145.89 47.895-108.59-70.43 65.99-79.741 25.029-4.048-23.12 8.18-65.763 26.386-119.223 22.788-44.328 53.17-83.73 68.3-108.584 15.621-23.628 13.629-44.672-25.367-38.853"/>
                    <path d="M808.006 88.798c20.499 2.43 40.528-.84 59.563 27.406 19.363 29.066 22.724 103.77-7.641 162.769-49.565 57.317-89.618 41.458-143.585 68.658-38.41 13.74-20.806 74.477 25.482 95.505 46.289 21.028 90.4 27.618 113.864 60.52 3.383 43.044-28.944 95.331-68.315 118.959-29.16 8.545-55.183 4.82-78.995-6.733-11.188-5.433-21.599-13.312-30.98-24.442-115.787-82.742-212.555-169.11-246.17-121.294-1.692 2.405.327 5.845 3.937 11.135 11.864 17.387 10.902 41.58-2.3 57.751-39.497 48.366-72.928 95.991-108.399 103.543-43.377 21.012-85.902 31.28-129.57 51.293-21.033 5.898-42.399 13.952-64.235 18.497a93.01 93.01 0 0 1-24.225 2.066c-29.721-1.665-59.564-14.58-79.175-42.478C-.15 641.27-33.36 606.169-102.895 602.047c-53.18 3.17-93.47 16.784-138.073 28.569-16.182 4.275-30.89 2.204-46.188-7.156-39.509-31.877-60.119-78.514-69.187-119.761.364-38.5-27.48-112.247-43.61-153.462-21.667-55.363-17.44 77.22-35.84 64.42-10.65-1.326-10.913-34.187-15.59-88.149s6.95-108.732 22.195-133.898c54.174-89.575-73.208 69.483-84.195 35.746-4.682-19.405 7.636-69.869 27.623-118.906 23.358-40.306 53.513-75.93 67.913-98.87 15.03-22.255 12.26-42.627-26.957-37.992"/>
                    <path d="M802.351 81.97c20.71 4.006 40.909 2.965 59.516 31.386 19.427 30.37 22.402 105.123-7.494 163.35-47.99 54.432-84.026 35.153-135.388 62.359-40.042 10.104-33.03 70.402 10.305 94.96 43.335 24.558 90.442 30.837 117.458 61.123 7.88 40.28-19.733 90.839-56.821 114.583-27.682 8.984-52.45 5.718-76.163-5.026-11.146-5.047-22.91-12.276-36.512-24.008-116.4-81.046-215.087-166.468-270.645-114.45-2.711 2.536-1.696 6.256 2.114 10.86 15.474 18.696 16.382 47.033 2.711 67.379-29.848 44.492-58.766 78.774-90.484 84.481-42.024 19.981-82.923 29.462-124.677 49.148-20.145 5.903-40.555 14.089-61.477 18.908a89.586 89.586 0 0 1-23.29 2.468c-28.695-1.057-58.13-12.979-78.413-40.063-28.807-29.695-68.04-61.329-141.376-63.665-54.554 3.922-97.202 18.026-141.524 27.333-16.076 3.377-29.42-2.843-43.826-12.768-36.824-33.188-52.99-78.034-58.866-116.971 2.082-35.862-29.77-109.806-44.122-154.028-19.279-59.41-16.092 67.332-33.151 51.68-8.672-1.116-19.66-50.116-18.867-102.624.793-52.509 18.18-97.735 34.15-118.04 56.848-72.257-81.384 50.042-91.953 30.15-4.894-12.028 9.084-62.534 30.381-107.242 23.623-36.47 53.286-68.548 66.91-89.813 14.432-21.023 10.85-40.809-28.538-37.342"/>
                    <path d="M796.432 74.904c20.98 5.438 41.4 6.474 60.304 36.502 18.903 30.027 21.667 104.721-7.52 162.145-46.215 51.679-78.563 29.25-127.25 56.546-40.296 7.663-43.594 65.599-4.994 94.448 38.599 28.849 87.931 35.936 118.144 64.024 14.765 35-9.602 84.724-43.102 107.807-26.207 9.455-51.261 6.981-74.89-2.954a139.516 139.516 0 0 1-37.214-22.962c-120.57-80.692-217.687-165.521-290.5-111.39-8.598 6.389 3.959 17.053 5.196 29.282 6.161 60.932-35.799 121.326-77.2 127.018-40.845 18.596-80.22 27.31-120.13 46.68-19.295 5.897-38.785 14.194-58.84 19.251a86.102 86.102 0 0 1-22.413 2.85c-27.755-.424-56.794-11.358-77.77-37.575-31.406-27.824-76.004-55.833-150.85-57.06-56.8 4.99-100.938 19.221-144.854 26.36-14.475-1.098-27.38-7.926-40.898-18.252-34.187-34.15-46.273-76.819-49.301-113.204.697-34.35-31.428-105.472-44.222-151.924-17.186-62.407-27.946 41.834-44.186 19.907-5.945-.528-14.464-54.516-6.87-100.525 7.594-46.008 28.31-81.469 44.254-97.587 56.752-57.37-86.225 27.338-99.088 17.307-5.786-7.525 9.772-52.82 31.973-93.348 23.559-32.845 52.455-61.63 65.287-81.427 13.84-19.939 9.417-39.228-30.123-36.908"/>
                    <path d="M790.223 67.627c21.313 6.723 41.997 9.671 60.869 40.227 18.871 30.557 21.667 106.138-6.654 161.664-44.254 49.116-73.346 23.718-120.084 43.129-37.954 15.759-51.346 68.236-18.18 100.937 33.168 32.702 83.679 41.533 115.868 68.823 20.61 30.651 1.205 77.907-31.212 96.826-23.252 13.57-46.505 11.198-70.344 2.114-13.016-3.832-27.687-9.698-41.12-21.345-122.425-81.337-215.087-165.453-301.307-109.393-10.183 6.622-3.467 19.474.529 31.216 19.801 58.502-23.412 116.38-64.659 119.963-39.888 16.91-77.843 24.864-115.998 43.863-18.497 5.871-37.094 14.268-56.325 19.553a83.694 83.694 0 0 1-21.593 3.216c-26.894.182-55.584-9.742-77.188-35.05-34.969-25.008-82.531-49.925-160.411-49.497-56.81 5.284-102.312 19.553-145.456 24.146-13.212-4.55-25.663-11.838-38.314-22.492-31.64-34.752-40.026-74.905-40.544-108.558-5.993-35.302-32.533-99.39-44.202-147.321-15.68-64.39-37.225 14.38-51.79-14.27-6.442-4.618-7.255-54.875 5.164-93.607 12.419-38.731 34.35-64.885 49.74-77.621 54.796-45.343-87.056 3.461-104.046.972-7.007-4.56 9.264-44.164 31.951-80.681 23.195-29.462 51.14-55.215 63.163-73.748 13.27-18.988 7.97-37.86-31.708-36.66"/>
                    <path d="M783.69 60.16c21.71 7.853 42.717 12.557 61.705 43.863 18.988 31.307 21.905 107.776-5.37 160.623-42.16 46.711-68.426 18.539-112.447 38.578-35.751 16.256-56.927 62.93-30.123 98.597 26.804 35.666 75.413 48.798 111.56 73.25 24.214 28.707 11.394 71.72-18.243 90.369-21.313 13.423-45.533 12.086-73.082 4.497-12.947-3.567-27.285-9.512-42.806-21.556-121.114-82.336-206.916-165.41-304.017-106.466-11.468 6.966-9.803 21.187-4.054 32.766 28.654 57.645-15.568 109.176-56.435 113.499-39.011 17.698-77.627 22.64-112.331 40.787-17.746 5.84-35.497 14.295-53.946 19.78a81.432 81.432 0 0 1-20.817 3.568c-26.095.782-54.432-8.133-76.628-32.501-38.266-21.514-89.38-43.002-168.581-41.448-55.907 5.21-102.666 19.342-144.05 19.263-12.974-5-24.96-12.683-36.771-23.501-29.214-35-34.271-72.363-32.612-103.157-11.552-35.302-33.056-91.774-44.212-140.483-14.945-65.43-42.9-12.018-54.828-46.643-6.057-8.693-.693-53.957 14.654-85.226 15.347-31.27 36.734-49.068 51.293-59.268 51.827-36.332-83.91-20.79-105.656-19.194-9.138-1.226 7.472-35.936 30.09-68.363 22.556-26.328 49.354-49.306 60.584-66.766 12.726-18.164 6.532-36.697-33.225-36.597"/>
                    <path d="M776.815 52.566c22.164 8.841 43.551 15.13 62.856 47.472 19.305 32.343 22.344 108.622-3.741 158.885-39.942 44.454-63.844 13.682-105.128 34.292-33.537 16.737-58.999 59.944-39.599 96.768 19.4 36.824 64.394 55.193 101.894 79.471 27.48 27.132 21.736 64.833-5.543 82.97-19.675 13.09-44.291 12.323-73.304 5.342-13.635-3.281-27.697-9.38-42.938-21.635-121.168-84.185-198.366-165.976-304.89-102.343-12.583 7.51-15.135 22.65-8.593 34.382 32.623 58.454-10.5 103.506-52.175 106.603-39.308 16.91-79.672 20.472-109.726 36.897-15.284 6.183-32.237 14.681-49.935 20.367a79.862 79.862 0 0 1-20.082 3.906c-25.335 1.374-53.328-6.543-76.1-29.938-42.277-16.874-94.77-35.714-174.606-33.204-54.913 5.026-102.798 18.94-142.544 15.04-12.72-5.353-24.246-13.306-35.26-24.187-26.951-34.88-29.065-69.283-26.327-97.445-14.866-33.88-32.19-82.684-43.451-131.499-15.099-65.604-46.051-36.295-54.697-75.972-4.957-12.493 4.926-52.055 21.52-76.258 16.593-24.204 36.205-34.88 49.855-43.335 48.588-30.212-77.045-44.603-104.171-41.004-11.553 1.057 5.078-29.399 27.12-57.857 21.7-23.458 47.182-43.931 57.656-60.488 12.213-17.44 5.116-35.725-34.694-36.686"/>
                    <path d="M769.575 44.835c22.666 9.67 44.503 17.38 64.215 50.616 19.711 33.236 23.104 109.156-1.676 156.956-37.642 42.33-59.648 9.142-98.237 30.297-31.333 17.175-59.717 56.773-57.761 94.839 22.65 36.93 63.173 60.166 101.096 84.935 30.033 26.34 28.696 60.848 3.92 77.875-17.914 12.314-44.681 12.567-72.542 4.868-14.438-3.145-30.276-8.953-47.367-21.905-114.825-87.023-182.274-167.298-297.776-96.874-13.645 8.318-19.553 24.172-13.043 36.3 32.554 60.42-8.143 95.939-51.996 99.004-41.162 17.91-86.209 17.096-107.839 31.417-12.884 6.23-26.365 15.986-43.377 21.852a78.562 78.562 0 0 1-19.395 4.228c-24.605 1.95-52.228-4.983-76.48-26.185-44.793-12.816-98.083-29.15-177.475-26.012-53.82 4.757-102.698 18.354-140.996 11.59-12.456-5.607-23.543-13.74-33.822-24.553-24.838-34.472-24.31-65.726-22.386-91.78-15.325-30.957-29.065-72.542-41.125-120.76-16.182-64.758-47.832-57.354-53.01-101.053-3.357-15.855 9.443-49.529 25.926-67.401 16.483-17.873 33.647-22.84 46.458-30.356 45.606-26.74-66.957-67.358-99.612-63.728-14.046 2.368 2.151-24.193 23.39-49.147 20.637-20.854 44.677-39.107 54.433-54.903 11.742-16.847 3.73-34.926-36.095-36.919"/>
                    <path d="M761.944 37.055c23.253 10.353 45.565 19.31 65.779 53.275s24.177 109.393.803 154.789c-35.291 40.317-55.875 4.899-91.79 26.534-29.166 17.572-58.37 55.553-61.535 92.24 13.894 36.712 49.122 64.367 83.076 93.237 34.377 23.913 34.979 57.075 12.054 72.765-16.626 11.378-41.886 10.495-71.951 3.028-14.126-3.509-31.1-9.338-47.208-22.867-108.22-90.896-165.517-169.48-290.246-89.84-14.734 9.407-23.2 25.896-17.667 38.579 27.555 63.094-11.293 89.216-60.208 91.05-41.834 19.77-86.325 9.565-104.87 21.265-7.54 7.536-16.805 18.92-30.418 27.01-6.136 1.935-12.36 3.573-18.813 4.228-23.903 2.516-51.14-3.456-76.676-22.159-47.483-8.085-100.938-22.248-178.369-19.025-52.63 4.434-102.348 17.62-139.447 8.984-12.186-5.76-22.85-13.962-32.406-24.59-22.914-33.716-20.118-61.804-21.197-86.488-12.604-26.678-23.41-62.19-36.792-108.939-17.967-62.798-49.147-74.345-51.113-121.051-1.527-18.666 12.741-46.727 28.21-59.289 15.468-12.562 29.98-13.265 42.134-20.457 43.213-25.594-54.384-88.587-92.339-86.711-16.462 2.795-1.057-20.262 19.178-42.13 19.4-18.528 42.204-34.937 50.966-49.998 11.33-16.33 2.394-34.282-37.416-37.278"/>
                    <path d="M753.9 29.218c23.824 10.887 46.728 20.917 67.534 55.437 20.806 34.52 25.567 109.313 3.668 152.426-32.919 38.404-52.546.951-85.845 22.994-27.036 17.899-54.77 57.402-62.888 90.077 5.618 35.291 34.715 66.751 63.781 99.516 35.936 24.104 40.38 54.242 19.088 68.701-15.484 10.506-41.801 9.597-73.768 1.924-15.025-3.604-32.332-10.041-46.955-24.241-98.263-95.378-145.905-172.027-280.48-80.76-15.896 10.775-25.995 27.934-21.815 40.945 20.822 64.833-24.24 84.206-65.916 91.695-45.2 8.122-88.582-10.612-107.279-2.225-6.426 7.055-8.598 22.391-17.904 33.124-4.841 2.743-9.671 5.523-15.675 6.87-23.332 2.7-50.167-2.33-77.373-17.212-48.323-4.555-101.508-16.567-176.71-13.249-51.34 4.064-101.719 16.769-137.93 7.267-11.917-5.813-22.195-13.957-31.1-24.31-21.192-32.643-16.383-57.603-20.647-80.856-8.953-22.338-17.52-53.174-32.501-97.608-20.093-59.733-50.664-86.637-49.999-135.457.291-21.043 14.887-44.122 28.823-52.53 13.936-8.408 26.106-6.177 37.76-13.576 41.49-26.344-40.196-107.956-82.97-109.361-18.629 2.473-4.408-17.487 14.665-35.788 18.126-17.397 39.978-32.337 47.741-46.76 10.67-15.795.82-33.684-38.948-37.637"/>
                    <path d="M745.424 21.381c24.463 11.262 47.98 22.196 69.473 57.075 21.493 34.879 27.253 108.922 6.87 149.831-30.556 36.576-49.676-2.7-79.117 25.04-26.27 12.799-51.88 54.135-63.464 83.064.196 35.006 20.716 67.332 44.095 103.58 34.383 26.72 41.348 54.75 21.366 67.723-14.575 9.46-40.517 7.356-73.922-1.057-15.7-3.958-31.925-11.558-44.893-26.339-87.108-99.267-126.584-173.496-271.633-68.532-17.138 12.398-27.872 30.271-25.14 43.208 13.63 64.473-37.05 76.628-76.627 80.185-42.69 3.826-85.56-21.863-104.637-16.42-6.543 5.977-7.478 21.514-9.476 37.521-2.558 4.392-6.151 8.086-11.626 9.634-20.277 5.74-46.69 1.628-74.969-9.248-49.676-.29-100.736-11.04-173.522-7.636-49.935 3.699-100.785 15.854-136.403 6.42a91.124 91.124 0 0 1-29.885-23.648c-19.67-31.28-13.048-53.28-19.385-74.705-5.945-18.813-12.889-46.225-29.536-87.726-22.343-55.742-52.884-93.824-50.432-144.023 1.813-22.91 15.94-41.876 28.268-47.293 12.33-5.417 22.666-1.48 33.997-9.512 40.332-28.538-25.367-125.247-72.242-131.177-20.489 1.475-7.716-15.764 10.295-32.707 16.54-14.697 37.479-28.384 44.745-42.446 9.512-15.194-1.237-33.077-40.93-37.95"/>
                    <path d="M736.493 13.586c25.14 11.484 49.322 23.152 71.576 58.27 22.254 35.116 29.224 108.214 10.395 146.998-28.22 34.82-47.261-6.05-74.15 21.546-24.34 13.375-47.456 56.42-59.616 85.29-5.285 31.808 7.499 64.124 23.48 102.48 30.123 30.841 39.45 56.779 20.219 68.42-14.063 8.514-42.441 6.342-73.795-4.65-14.74-5.158-29.721-13.904-40.872-29.118-74.942-102.2-108.801-173.063-264.726-52.847-18.417 14.2-28.59 32.913-27.406 45.231 5.887 61.377-48.18 66.112-86.14 65.118-40.693-1.057-83.642-32.146-103.295-29.213-6.754 5.015-7.732 19.632-7.526 36.866.08 6.378-.37 12.715-3.17 16.863-15.548 10.041-41.522 6.796-70.815 1.1-49.507 2.816-98.18-6.733-168.323-3.203-48.408 3.282-99.5 14.876-135.573 7.324-10.718-6.479-20.267-14.22-28.052-23.68-18.327-29.674-10.86-49.148-17.65-68.432-3.589-16.197-9.434-41.22-27.587-79.513-24.383-51.468-55.864-95.96-52.688-147.004 2.843-24.358 16.092-40.212 27.354-43.98 10.57-3.318 19.706 1.242 30.82-7.684 39.55-31.782-10.77-140.393-60.98-151.744-22.021.09-10.791-14.924 6.046-29.996 14.966-13.185 35.048-25.8 41.87-39.588 8.371-14.707-3.308-32.633-42.906-38.382"/>
                    <path d="M727.102 5.87c25.832 11.558 50.733 23.782 73.833 58.94 23.1 35.16 31.449 107.185 14.163 143.913-25.938 33.135-45.295-9.095-69.716 18.29-22.476 13.868-42.806 58.428-54.327 88.456-9.713 27.797-2.209 61.112 4.228 98.876 24.891 34.6 31.957 61.768 13.376 71.676-13.63 7.278-40.455 2.616-69.483-10.849-13.64-6.342-27.195-16.145-36.422-31.597-62.006-103.791-93.772-169.612-260.266-33.5-19.664 16.082-27.803 35.867-23.364 54.549-8.217 46.008-62.76 45.01-99.69 39.138-39.366-6.252-82.87-41.22-103.332-40.39-7.05 4.185-8.16 17.814-7.927 34.138.096 6.046.613 12.943-.84 18.174-5.4 19.374-28.49 21.218-57.952 19.723-48.767 5.707-94.516-2.896-161.801.845-46.743 2.923-97.83 13.926-133.993 8.065-10.485-6.204-19.712-13.576-27.005-22.486-17.138-27.85-9.153-45.163-15.717-62.465-1.855-14.422-7.039-37.786-26.423-72.987-26.059-47.293-59.358-93.301-56.457-144.764 3.356-25.43 15.548-39.17 25.62-41.553 9.687-3.06 18.196 1.2 29.135-8.805 38.927-35.576 2.812-153.293-49.898-170.695-23.062-1.696-13.603-14.845 2.077-28.358 13.312-11.927 32.649-23.643 39.06-37.21 7.281-14.331-5.402-32.357-44.857-38.942"/>
                    <path d="M717.199-1.713c26.545 11.478 52.191 24.082 76.216 59.104 24.024 35.022 33.906 105.831 18.158 140.573-23.74 31.496-43.773-11.827-65.816 15.278-20.679 14.268-37.97 60.118-48.783 89.21-10.812 29.093-9.475 60.082-11.954 96.245 18.756 37.865 22.894 66.143 4.799 74.414-13.318 6.088-38.399-.962-64.77-16.758-12.392-7.425-24.309-18.195-31.591-33.632-48.762-103.68-82.7-161.87-258.464-10.289-20.758 17.905-24.96 39.144-20.219 55.822-20.298 33.505-73.896 28.5-110.577 17.662-38.869-11.49-83.213-49.074-104.637-49.882-7.398 3.488-8.772 16.118-8.577 31.475.074 5.687.624 12.224 1.057 19.025 1.691 25.271-14.844 35.482-44.085 38.647-47.884 8.556-89.84.285-154.048 4.355-44.92 2.642-95.738 13.042-132.308 9.438-10.257-5.813-19.178-12.736-26.016-21.038-16.082-25.895-7.822-41.48-13.899-57.138-.66-13.323-5.554-35.62-25.895-67.845-27.348-43.287-62.888-86.77-61.197-138.2 3.303-26.138 14.528-38.763 23.781-40.803 9.127-3.61 17.44-.396 28.2-11.51 38.308-39.53 14.87-163.947-39.551-187.728-23.65-3.7-16.07-15.368-1.5-27.623 12.154-11.066 30.217-21.874 36.347-35.328 6.104-14.01-7.44-32.163-46.775-39.535"/>
                    <path d="M706.814-9.117c27.259 11.246 53.688 24.05 78.69 58.766 25.001 34.715 36.57 104.14 22.322 136.974-21.63 29.911-42.669-14.227-62.428 12.52-18.94 14.6-33.024 61.47-42.98 91.652-9.957 30.18-13.53 58.168-24.553 90.695 11.785 40.544 12.35 69.679-5.385 76.375-13.096 4.94-36.2-4.37-59.57-22.238-10.986-8.403-21.138-19.94-26.48-35.075-35.937-101.656-76.676-148.5-258.866 17.027-21.525 19.554-22.196 39.371-20.082 50.527-28.077 23.565-80.449 14.798-117.748-.935-39.276-16.541-83.768-55.362-107.057-57.714-7.853 2.912-9.56 14.58-9.55 28.965.091 6.132.559 12.253 1.4 18.328 3.203 25.297-2.07 47.874-27.839 57.856-46.326 11.405-84.687 3.462-145.54 8.033-42.996 2.405-93.18 12.287-130.421 11.31-10.041-5.343-18.65-11.733-25.07-19.39-15.12-23.84-7.4-38.293-12.451-52.625.052-12.763-4.852-34.393-25.895-63.786-28.252-39.488-65.832-77.659-66.212-128.36 2.769-26.503 13.164-38.938 21.942-41.585 8.815-4.757 17.149-3.034 27.702-15.23 37.553-43.42 25.076-172.482-30.355-202.785-23.781-5.77-17.677-16.52-4.603-27.602 11.346-10.469 27.83-20.473 33.77-33.822 4.92-13.803-9.513-32.115-48.662-40.227"/>
                    <path d="M695.923-16.299c27.971 10.876 55.203 23.707 84.121 57.778 23.147 34.35 36.523 102.274 23.723 133.248-19.622 28.373-41.95-16.293-59.526 10.04-17.266 14.845-28.01 62.46-36.718 93.682-8.71 31.222-14.047 59.115-31.455 87.34 2.257 39.789-1.332 69.425-18.803 74.594-12.942 3.826-33.822-7.536-53.84-27.121-9.418-9.206-17.62-21.266-21.287-35.825-24.674-97.793-76.702-128.318-260.9 45.781-21.757 20.563-21.588 36.665-20.563 47.087-34.8 10.273-85.712-2.114-124.538-22.45-40.619-21.265-74.361-57.671-98.729-61.973-10.532 1.77-19.31 11.558-21.741 24.748-.899 4.883-.439 10.686.417 17.144 3.171 23.929 9.196 58.068-10.923 76.733-43.794 13.254-78.742 5.634-136.018 10.908-40.892 2.304-90.12 11.727-128.227 13.534-9.782-4.788-18.121-10.57-24.146-17.603-14.226-21.805-7.874-35.587-11.626-48.968.37-12.562-4.783-33.822-26.265-60.526-28.855-35.899-67.797-67.58-70.815-116.453 1.77-26.424 11.484-39.598 20.018-43.562 8.604-6.167 17.028-6.14 27.333-19.337 36.65-46.965 33.31-179.013-22.55-215.715-23.443-7.827-18.496-18.005-7.499-28.067 10.997-10.062 25.81-19.437 31.65-32.739 3.742-13.708-11.526-32.205-50.506-41.009"/>
                    <path d="M685.406-23.27c27.76 10.422 55.801 23.11 85.802 56.272 24.21 33.954 39.482 100.156 28.067 129.343-17.725 26.878-41.585-18.016-57.074 7.821-15.654 15.009-22.973 63.078-30.123 95.24-7.15 32.163-12.837 61.034-34.932 84.651-6.896 37.405-15.109 67.179-32.374 70.857-12.831 2.732-31.18-10.39-47.562-31.18-7.71-9.787-13.867-22.058-16.303-35.846-16.383-92.635-83.705-100.562-283.07 77.685-5.924 14.068-7.667 23.813-10.463 29.293-33.553 7.8-82.79-8.006-119.92-31.01-38.61-23.908-67.914-61.086-91.906-66.941-10.707 1.057-20.352 9.977-29.182 21.804a73.838 73.838 0 0 0-8.699 15.553c2.49 22.545 14.348 61.699 6.062 93.46-40.883 15.193-72.596 7.89-126.125 14.084-38.626 2.351-86.52 11.451-124.92 15.056-10.204-3.256-18.253-8.456-23.907-14.798-13.402-19.849-8.693-33.245-11.626-46.087.37-12.62-5.206-33.648-26.894-57.862-29.145-32.543-68.606-57.535-74.43-104.04.434-25.816 9.486-40.301 17.841-45.808 8.382-7.615 16.864-9.306 26.884-23.395 35.671-50.11 39.682-183.801-15.215-226.74-23.639-9.702-19.78-19.553-9.951-29.065 9.83-9.513 23.03-18.454 28.849-31.708 2.574-13.635-13.518-32.332-52.318-41.781"/>
                    <path d="M674.715-30.007c27.48 9.92 56.018 22.296 87.134 54.39 25.314 33.346 42.552 97.682 32.459 125.136-15.96 25.43-41.549-19.384-55.05 5.903-14.1 15.104-17.969 63.326-23.254 96.266-5.284 32.94-10.78 62.888-35.254 83.207-14.876 33.045-27.956 62.73-45.036 65.002-12.72 1.654-28.315-12.826-40.877-34.282-5.908-10.083-9.999-22.196-11.927-35.185-12.943-87.245-98.75-65.171-293.38 98.903-5.538 6.431-9.629 13.259-15.738 15.515-30.434 11.252-77.806-7.757-112.712-33.018-36.03-26.08-61.83-64.072-85.405-71.407-10.85.36-21.292 8.36-31.18 19.337a72.363 72.363 0 0 0-10.041 14.696c-11.098 21.065.645 61.784 7.32 107.449C4.6 499.38-24.17 492.363-73.714 499.725c-36.216 2.579-82.372 11.53-119.307 14.665-12.345.327-20.082-4.228-25.404-9.978-12.63-18.02-10.072-31.227-12.567-43.831.111-12.837-6.008-33.748-27.691-55.621-29.135-29.389-68.337-47.9-76.782-91.98-.998-24.918 7.283-40.692 15.39-47.7 8.085-8.984 16.551-12.334 26.27-27.19 34.572-52.873 44.248-187.162-9.143-235.866-23.68-11.515-20.763-21.244-12.06-30.413 8.704-9.17 21.483-17.836 24.542-31.233 3.06-13.396-13.83-32.342-52.392-42.383"/>
                    <path d="M663.58-36.476c27.951 9.333 56.124 21.298 88.329 52.15 26.423 32.564 45.707 94.87 36.85 120.65-14.316 24.023-41.786-20.395-53.376 4.285-12.609 15.12-12.963 63.194-16.229 96.71-3.266 33.515-8 64.473-31.74 85.612-20.61 27.396-39.889 53.867-56.773 54.855-12.636.74-25.235-14.665-33.917-36.026-4.085-10.04-6.39-21.63-8.757-33.975-15.907-82.917-122.858-23.142-301.708 109.884-7.452 5.92-13.487 12.282-20.013 14.322-32.528 10.146-77.088-10.945-109.652-38.24-33.378-27.983-55.759-66.434-78.864-75.164-10.97-.328-22.153 6.706-32.997 16.768a71.592 71.592 0 0 0-11.299 13.74c-12.868 19.997-15.632 62.486 4.228 119.117-31.18 20.774-57.26 14.005-102.64 22.772-33.663 3.002-77.653 12.044-112.933 14.823-12.435.946-21.958-.528-26.952-5.712-12.461-16.32-12.155-29.426-14.533-41.993-.338-13.132-7.066-33.985-28.569-53.692-28.897-26.434-67.2-38.795-77.97-80.507-2.384-23.908 5.015-40.777 12.773-49.221 7.715-10.237 16.081-15.152 25.483-30.652 33.462-55.182 47.218-189.303-4.381-243.132-23.507-13.223-21.393-22.973-14.702-31.677 8.619-9.206 21.138-17.661 23.051-31.095 1.913-13.434-15.78-32.601-54.115-43.176"/>
                    <path d="M652.002-42.622c28.389 8.63 56.757 20.114 89.348 49.576 27.612 31.586 48.91 91.705 41.22 115.872-12.804 22.66-42.277-21.038-52.08 2.975-11.172 15.072-8.054 62.687-9.132 96.6-1.078 33.91-4.63 65.815-26.762 88.47-24.098 22.196-48.043 44.317-64.626 44.391-12.462.048-21.937-15.695-27.423-36.395-2.578-9.735-3.842-20.79-7.715-32.675-26.022-79.831-156.321 23.717-309.52 120.691-9.173 5.37-17.016 11.014-24.113 12.652-35.36 8.17-77.13-14.528-107.28-43.636-30.65-29.594-49.734-68.172-72.357-78.213-11.098-1.01-22.941 5.02-34.694 14.11a70.477 70.477 0 0 0-12.499 12.683c-14.559 18.803-26.597 62.433-3.916 126.674-22.306 26.545-46.066 19.992-87.107 30.366-30.974 3.641-72.363 13.043-105.815 15.632-11.854.83-22.117.803-28.295-2.204-13.296-14.654-15.045-27.676-17.524-40.332-.92-13.455-8.28-34.277-29.446-51.975-28.432-23.781-65.319-30.424-78.081-69.758-3.636-22.84 2.8-40.65 10.115-50.39 7.277-11.362 15.463-17.714 24.558-33.748 32.384-57.074 48.761-190.507-.904-248.771-23.126-14.797-21.61-24.653-15.42-33.294 7.091-9.095 19.463-17.392 20.224-30.92.76-13.53-17.688-32.919-55.764-43.98"/>
                    <path d="M640.655-48.472c28.104 7.89 57.038 18.792 89.497 46.759 28.775 30.44 52.107 88.196 45.448 110.81-11.41 21.35-42.933-21.314-51.05 1.981-9.798 14.956-3.245 61.831-2.024 95.88 1.22 34.05-.798 66.762-20.98 90.86-24.997 19.965-52.06 34.61-67.872 34.599-11.917 0-18.982-15.654-22.724-35.852-1.77-9.512-3.05-20.298-9.475-31.65-43.134-76.21-184.468 60.595-315.364 131.975-10.696 4.857-20.082 9.613-27.787 10.744-38.309 5.649-77.616-18.597-105.255-49.27-27.92-30.984-43.816-69.335-65.964-80.591-11.193-1.675-23.67 3.319-36.279 11.378a70.397 70.397 0 0 0-13.624 11.59c-16.134 17.492-31.354 60.54-21.625 126.346-6.236 38.271-27.977 31.872-64.542 44.016-28.167 4.465-66.545 14.58-97.962 17.138-11.209.766-20.912.655-27.898-1.004-17.926-11.283-20.198-24.384-23.015-37.199-1.585-13.782-9.544-34.562-30.244-50.421-27.803-21.297-62.888-22.724-77.289-59.76-4.756-21.73.703-40.322 7.505-51.219 6.796-12.355 14.739-20.007 23.559-36.464 31.39-58.56 49.058-191.03 1.347-252.973-22.497-16.144-21.503-26.238-15.653-34.873 5.956-9.048 17.968-17.207 17.577-30.884-.391-13.677-19.553-33.294-57.381-44.777"/>
                    <path d="M629.605-54.068c27.18 7.208 56.493 17.376 88.667 43.82 29.927 29.114 55.267 84.35 49.591 105.477-10.141 20.082-43.752-21.223-50.263 1.3-8.482 14.797 1.427 60.579 5.02 94.565 3.594 33.985 3.399 67.274-14.58 92.667-23.353 21.973-52.218 28.86-67.437 26.878-11.521-1.501-17.091-17.012-21.488-37.358-2.066-9.57-5-20.61-14.591-30.778-64.42-68.283-181.513 71.555-316.4 145.207-12.022 4.424-22.64 8.202-30.889 8.741-41.104 2.695-78.213-23.062-103.284-55.071-25.07-32.01-38.05-69.912-59.785-82.31-11.315-2.335-24.352 1.586-37.754 8.572a70.033 70.033 0 0 0-14.67 10.406c-17.662 16.081-35.936 57.635-44.72 121.76 12.72 52.053-7.356 45.77-39.323 59.769-25.266 5.47-60.208 16.626-89.411 19.379-10.501.766-19.59.613-25.605-1.448-24.996-6.78-27.48-20.082-30.746-33.072-2.257-14.078-10.786-34.805-30.91-48.984-27.031-19.024-60.06-15.8-75.756-50.5-5.655-20.61-1.21-39.81 5.025-51.721 6.3-13.212 13.957-22.037 22.54-38.806 30.54-59.685 48.265-191.089 2.43-255.927-20.435-17.217-21.08-27.591-15.462-36.284 5.913-9.069 16.525-17.191 15.056-31.064-1.47-13.872-21.361-33.679-58.935-45.554"/>
                    <path d="M618.491-59.38c27.042 6.495 55.49 15.929 87.261 40.809 30.99 27.623 58.285 80.18 53.492 99.88-8.984 18.883-44.677-20.774-49.676.941-7.224 14.538 5.95 58.993 11.948 92.646s7.853 67.316-7.726 93.814c-21.324 23.902-51.045 24.436-66.63 18.533-10.12-3.604-16.287-19.5-23.944-40.327-3.604-9.798-8.836-20.938-21.007-28.844-80.924-49.1-173.042 83.868-311.342 161.183-13.148 4.085-24.579 6.87-34.953 9.169-41.85-2.938-77.806-27.665-98.998-63.612-21.07-35.73-32.971-69.626-54.332-83.107-11.446-3.002-25.002-.158-39.106 5.697a70.096 70.096 0 0 0-15.648 9.164c-19.062 14.575-40.074 52.74-53.18 113.62 10.104 63.078-5.211 60.045-31.666 76.628-22.286 6.601-53.407 19.115-80.222 22.291-9.729.851-18.205.724-23.929-1.332-31.243-3.17-34.123-16.726-37.86-29.916-2.938-14.332-11.937-34.995-31.4-47.636-26.134-16.98-56.975-9.592-73.627-42.019-6.395-19.448-2.912-39.107 2.753-51.917 5.813-13.94 13.164-23.78 21.562-40.792 29.874-60.489 46.505-190.883 3.408-257.507-19.167-18.2-20.895-28.976-15.373-37.907 5.523-8.931 14.755-17.123 12.208-31.228-2.547-14.104-23.147-34.102-60.447-46.256"/>
                    <path d="M608.197-64.559c25.662 5.92 53.808 14.613 85.548 37.881 30.752 26.022 59.934 75.75 55.928 94.094-7.927 17.725-45.665-19.97-49.237.888-6.02 14.268 10.289 57.074 18.702 90.151 8.413 33.077 12.467 66.868-.576 94.232-19.025 25.678-47.17 27.707-65.202 13.08-10.691-6.723-19.696-24.918-31.708-45.856-5.65-9.85-13.365-20.034-24.659-25.747-75.407-36.538-163.09 96.557-303.087 177.2a285.003 285.003 0 0 1-36.85 7.008c-43.414-5.977-77.728-32.347-96.023-68.917-18.037-36.063-27.792-69.198-48.9-83.726-11.626-3.672-25.625-1.94-40.422 2.759a70.566 70.566 0 0 0-16.536 7.869c-20.33 12.995-43.445 46.22-60.53 103.12-6.263 66.117-13.175 69.282-28.21 93.254-19.242 7.8-46.183 21.931-70.456 25.768-8.904 1.01-17.249 1.152-27.908.608-31.275-1.586-34.652-15.368-38.9-28.733-3.568-14.554-12.932-35.138-31.645-46.39-25.156-15.103-53.762-4.068-71.058-34.302-6.966-18.301-4.37-38.304.734-51.827 5.338-14.538 12.409-25.282 20.68-42.436 29.424-61.028 43.83-190.598 3.963-257.856-18.317-19.099-20.082-30.234-15.215-39.286 4.867-9.053 12.805-17.398 9.185-31.75-3.62-14.354-24.838-34.489-61.868-46.971"/>
                    <path d="M599.012-69.621c24.093 5.47 51.177 13.486 82.15 35.138 30.33 24.394 61.303 71.147 58.005 88.201-7.018 16.626-46.669-18.824-48.91 1.142-4.867 13.893 14.428 54.818 25.23 87.086 10.801 32.268 17.17 65.9 6.753 93.893-16.446 27.237-42.843 31.211-60.97 15.896-13.882-11.726-25.366-30.582-39.153-49.528-6.485-8.915-14.3-17.397-25.309-22.343-73.87-33.067-159.544 100.831-299.848 184.192-13.824 2.722-26.55 4.571-37.706 4.984-44.455-8.947-77.156-36.925-92.577-73.849-15.077-36.089-23.004-68.31-44.022-83.889-11.8-4.36-26.227-3.741-41.622-.232a71.158 71.158 0 0 0-17.344 6.532c-21.53 11.351-46.056 38.768-66.503 90.68-13.206 61.202-20.325 64.732-29.493 108.97-16.15 8.984-38.579 24.89-61.588 30.197-11.035 2.515-22.391 4.317-32.173 3.741-28.686-1.68-32.612-15.685-37.358-29.198-4.122-14.723-13.74-35.19-31.666-45.179-24.103-13.407-50.532.798-68.172-27.321-7.367-17.181-5.565-37.363-.983-51.484 4.92-15.014 11.727-26.524 19.944-43.789 29.262-61.45 40.312-190.36 3.578-257.253-17.366-19.775-19.035-31.212-16.002-40.439 5.633-9.184 12.202-17.767 7.578-32.384-4.624-14.618-26.503-34.88-63.247-47.562"/>
                    <path d="M589.79-74.562c23.359 5.036 48.683 12.482 78.14 32.59 29.89 22.75 62.359 66.402 59.68 82.23-6.173 15.59-47.642-17.344-48.62 1.691-3.773 13.487 18.349 52.271 31.481 83.498 13.133 31.227 21.884 64.426 14.137 92.773-13.709 28.537-38.33 34.303-56.546 20.314-14.005-10.754-26.45-29.066-41.342-47.514-7.008-8.673-15.358-16.911-26.773-21.599-76.628-31.624-160.744 102.576-299.869 187.48-13.682 2.177-26.55 3.477-35.936 1.506-46.822-9.835-77.859-39.297-90.495-76.29-12.239-35.846-18.781-67.068-39.83-83.752-12.018-5.073-26.81-5.586-42.727-3.276a72.369 72.369 0 0 0-18.058 5.168c-22.576 9.666-47.82 30.778-70.751 76.972-17.603 55.61-25.367 59.97-36.576 122.398-16.678 15.284-33.906 31.18-58.813 39.583-9.924 2.642-20.214 4.518-28.796 3.736-25.182-2.288-29.663-16.494-34.847-30.123-4.577-14.86-14.269-35.212-31.391-44.048-23.01-11.864-47.383 5.063-65.134-21.043-7.62-16.087-6.495-36.327-2.373-50.918 4.566-15.368 11.156-27.523 19.395-44.894 29.314-61.83 37.151-188.663 2.209-255.82-16.314-20.199-17.74-31.883-14.406-41.195 4.354-9.423 9.66-18.333 4.032-33.204-5.628-14.87-28.115-35.243-64.568-48.122"/>
                    <path d="M580.394-79.356c23.089 4.572 47.187 11.526 74.276 30.266 29.97 21.043 62.444 61.582 60.325 76.258-5.417 14.607-48.55-15.558-48.381 2.52-2.743 13.033 22.01 49.428 37.4 79.345 15.388 29.917 26.534 62.433 21.471 90.897-10.839 29.594-33.674 36.934-52.006 24.246-14.158-9.798-27.629-27.48-43.668-45.216-7.546-8.34-16.43-16.198-28.236-20.552-79.27-29.24-161.833 106.322-297.945 191.062-14.058 2.23-26.36 2.738-35.751.35-46.79-11.912-76.1-42.675-86.046-79.461-9.554-35.323-15.214-65.589-36.464-83.467-12.255-5.813-27.348-7.451-43.715-6.341a73.854 73.854 0 0 0-18.67 3.805C59.492 192.314 33.914 207.999 9.673 247c-21.086 49.708-34.546 75.043-46.151 140.351-17.44 17.44-35.143 34.499-57.228 43.218-8.847 2.754-17.868 4.55-25.282 3.562-21.292-3.17-26.275-17.54-31.819-31.28-4.91-14.96-14.528-35.18-30.82-42.975-21.879-10.469-44.392 8.783-62.01-15.415-7.732-15.025-7.151-35.207-3.41-50.152 4.302-15.622 10.739-28.3 19.025-45.829 29.568-62.36 33.33-186.882 1.242-253.057-15.854-20.774-17.555-32.765-13.846-42.12 3.171-9.781 7.225-19.024.624-34.165-6.6-15.14-29.668-35.571-65.831-48.577"/>
                    <path d="M570.823-83.948c22.799 4.085 46.664 10.538 70.926 28.093 28.982 19.39 61.186 56.869 59.548 70.456-4.756 13.687-49.354-13.487-48.09 3.604-1.76 12.54 25.419 46.326 42.953 74.73 17.535 28.406 31.106 59.966 26.36 87.04-5.533 31.554-26.613 40.28-45.078 28.87-14.327-8.847-28.86-25.784-46.056-42.637-8.09-7.927-17.508-15.326-29.684-19.226-81.744-26.138-162.716 112.036-294.886 195.328-13.407 1.717-25.578 2.034-36.533 1.099-44.301-15.326-71.755-47.034-79.217-83.387-7.103-34.552-12.483-64.088-34.086-83.266-12.499-6.585-27.824-9.311-44.556-9.375a75.333 75.333 0 0 0-19.178 2.452c-24.251 6.268-50.51 18.629-77.991 54.575-25.108 51.103-42.653 87.018-54.343 150.614-15.574 18.396-33.906 36.353-53.83 45.232-7.398 2.536-14.691 3.878-21.466 2.954-19.907-2.727-25.319-17.244-31.11-31.064-5.122-15.035-14.513-35.122-29.95-41.965-20.763-9.19-41.653 12.033-57.83-11.516-8.82-12.852-8.635-32.876-5.179-48.09 4.133-15.775 10.485-28.887 18.888-46.67 29.9-63.284 29.351-184.303-.116-249.273-14.771-21.075-17.086-33.531-14.27-43.334 2.818-9.804 5.645-19.443-1.902-34.842-7.583-15.49-31.18-35.846-67.041-48.931"/>
                    <path d="M561.079-88.34c22.48 3.583 46.093 9.513 67.971 26.07 27.042 17.867 58.66 52.376 57.45 64.943-4.143 12.832-50.004-11.145-47.763 4.93-.835 11.997 28.537 42.981 48.09 69.658 19.554 26.677 35.456 56.985 33.331 83.884-2.51 31.74-21.815 41.702-40.417 31.571-14.49-7.895-30.123-23.96-48.45-39.783-8.635-7.446-18.576-14.3-31.095-17.64-84.058-22.392-163.297 119.692-290.278 199.83-12.382 1.146-24.24 1.315-33.23-1.586-44.809-14.506-70.286-46.69-75.57-82.351-4.974-33.584-10.713-62.835-32.734-83.403-12.73-7.34-28.215-11.098-45.216-12.292a77.257 77.257 0 0 0-19.553 1.157c-24.875 4.624-56.409 19.95-90.416 59.717-25.367 50.168-42.97 83.99-55.093 145.329-13.798 19.886-30.487 37.812-48.772 46.748-6.791 2.643-13.513 4.048-19.85 3.24-18.612-2.368-24.34-17.001-30.26-30.89-5.19-15.177-14.19-35.116-28.775-41.072-19.585-8.022-39.107 14.86-55.901-5.86-7.584-13.033-7.637-32.818-4.365-48.15 4.069-15.853 10.421-29.319 18.882-47.525 30.122-64.795 25.477-180.599-2.304-244.68-13.587-21.14-15.326-33.67-13.656-43.895 1.67-10.226 3.303-20.278-5.163-35.936-8.514-15.727-32.633-36.052-68.173-49.148"/>
                    <path d="M552.597-92.858c20.705 3.361 44.032 8.74 64.837 24.362 24.659 16.557 54.628 48.287 53.164 59.966-3.598 12.028-48.82-8.984-47.319 6.463.037 11.41 31.36 39.418 52.8 64.167 21.44 24.748 39.577 53.539 40.015 80 .529 31.623-17.011 42.652-35.74 33.795-14.665-6.939-31.354-22.01-50.823-36.65-9.164-6.87-19.6-13.127-32.437-15.817-86.135-18.063-163.482 129.095-283.228 203.762-12.382 1.364-22.629.777-31.407-2.114-43.762-14.474-67.115-46.505-70.72-81.431-3.366-32.549-9.988-62.106-32.437-84.027-12.905-8.08-28.495-12.789-45.67-15.003a79.577 79.577 0 0 0-19.844-.058C88.453 147.622 50.097 167.93 11.83 208.67c-26.423 48.91-43.752 79.958-56.456 138.803-12.266 21.524-27.48 39.434-44.286 48.402-6.241 2.68-12.44 4.18-18.359 3.467-17.397-2.114-23.3-16.821-29.219-30.757-5.1-15.14-13.55-34.958-27.28-40.121-18.443-6.928-36.924 17.355-53.042-1.786-7.356-12.108-7.499-31.576-4.291-46.976 4.112-15.854 10.57-29.647 18.956-48.487 29.922-67.052 20.811-176.868-5.3-239.386-12.324-20.927-13.328-33.42-12.79-44.106.54-10.686 1.031-21.165-8.328-36.993-9.412-15.944-34.028-36.2-69.298-49.306"/>
                    <path d="M544.21-97.297c19.902 3.086 41.648 8.101 62.327 22.724 21.314 15.542 50.205 44.597 47.832 55.621-3.874 11.394-47.562-6.87-46.378 7.97-.286 11.098 32.765 35.988 55.885 58.617 23.12 22.63 43.414 49.676 46.331 75.423 3.536 31.207-12.24 43.124-31.08 35.545-14.796-5.966-32.569-19.923-53.116-33.235-9.676-6.262-20.61-11.806-33.7-13.772-87.668-12.377-161.585 137.233-274.899 207.688-10.39.444-20.489.122-28.95-2.684-42.166-14-63.188-45.206-65.857-79.55-2.468-31.672-10.29-62-33.114-85.084-13.09-8.683-28.664-14.19-45.919-17.329a82.182 82.182 0 0 0-20.002-1.147c-25.642 1.628-70.387 26.287-110.397 65.044-29.991 49.497-46.97 77.833-60.357 133.94-11.066 23.069-24.938 41.28-40.39 50.274-5.735 2.727-11.463 4.28-16.98 3.647-16.235-1.86-22.17-16.684-27.951-30.652-4.867-15.177-12.615-34.879-25.499-39.28-17.307-5.914-35.032 19.553-50.368 1.907-7.045-11.22-7.113-30.324-3.853-45.728 4.254-15.854 10.87-29.943 19.083-49.18 29.246-68.468 16.092-172.608-7.969-233.139-11.626-20.949-12.345-33.468-12.879-44.63-.534-11.16-1.168-22.063-11.394-38.086-10.289-16.124-35.375-36.258-70.344-49.311"/>
                    <path d="M535.738-101.646c19.427 2.774 39.963 7.488 59.643 21.255 19.485 14.612 45.126 41.432 43.102 51.737-4.423 10.944-47.382-4.54-45.411 9.433-.402 10.818 32.506 32.955 57.175 53.312 24.669 20.356 46.912 45.385 52.202 70.191 6.506 30.482-7.525 43.118-26.423 36.824-14.961-4.973-33.743-17.699-55.304-29.542-10.158-5.575-21.504-10.358-34.88-11.526-87.82-3.942-158.212 145.023-263.42 210.135-9.92.577-19.823.529-27.856-2.113-40.015-13.212-58.411-43.07-61.054-77.204-2.41-31.148-11.547-62.36-34.72-86.326-13.212-9.18-28.722-15.325-45.977-19.22-6.394-1.448-13.1-2.183-19.913-2.68-26.555 1.459-75.57 28.458-116.347 64.225-33.632 49.032-51.68 76.3-66.059 129.517-10.162 24.574-22.787 43.562-37.03 52.583-5.284 2.764-10.569 4.365-15.706 3.8-15.125-1.68-20.927-16.584-26.423-30.651-4.497-15.226-11.405-34.842-23.454-38.526-16.181-4.952-33.446 21.61-47.89 5.332-6.663-10.384-6.51-29.065-3.08-44.476 4.507-15.854 11.351-30.307 19.183-49.787 27.86-69.319 11.484-167.276-10.638-225.894-10.284-20.61-12.002-33.684-13.576-45.321-1.575-11.637-3.309-22.946-14.375-39.107-11.135-16.271-36.665-36.242-71.343-49.195"/>
                    <path d="M527.484-105.948c18.639 2.515 38.7 6.87 56.488 19.934 19.363 13.634 40.29 38.758 37.738 48.513-3.948 10.384-45.364-2.642-44.312 10.971.306 10.258 31.835 30.123 57.825 48.06 25.99 17.935 50.035 40.744 57.571 64.361 9.402 29.452-2.917 42.648-21.894 37.654-15.072-3.97-34.837-15.326-57.345-25.578-10.6-4.825-22.343-8.778-35.877-9.095-86.14 7.752-154.16 153.642-250.24 211.741-9.535.89-19.12 1.112-28.686.661-34.271-14.797-51.045-42.806-54.554-77.12-3.17-30.941-13.682-62.77-37.183-87.197-13.312-9.512-28.717-16.081-45.892-20.573a140.314 140.314 0 0 0-19.86-3.414c-28.944 2.362-78.546 28.712-119.524 61.075-36.079 46.41-54.506 71.137-73.14 125.601-9.56 25.959-21.192 45.697-34.35 54.755-4.873 2.817-9.761 4.455-14.528 3.937-14.047-1.517-19.553-16.51-24.643-30.614-4.005-15.289-9.956-34.879-21.175-37.87-15.067-4.022-32.131 23.543-45.602 8.572-6.22-9.587-5.702-27.882-2.003-43.26 4.825-15.913 11.917-30.9 19.178-50.338 25.842-69.17 6.13-161.938-14.078-218.114-8.852-20.03-11.558-33.664-14.137-45.76-2.579-12.097-5.38-23.782-17.26-40.064-11.959-16.382-37.907-36.137-72.257-48.947"/>
                    <path d="M520.508-110.467c16.863 2.516 36.047 6.553 51.985 19.057 19.025 12.683 36.063 36.417 32.766 45.802-4.688 10.115-43.435-.93-43.039 12.356-.227 10.115 30.546 27.67 57.138 43.229 26.593 15.558 52.234 35.936 61.863 58.131 12.197 28.136 1.585 41.723-17.44 38.05-15.162-2.944-35.84-12.836-59.188-21.355-11.003-4.011-23.094-7.077-36.755-6.48-82.833 21.895-149.108 162.272-235.697 212.445-9.344 1.157-18.497 1.586-24.955-.909-32.073-12.509-47.641-38.948-52.678-73.494-4.492-30.794-16.472-62.861-40.327-87.324-13.391-9.65-28.664-16.478-45.713-21.366a146.418 146.418 0 0 0-19.738-3.953c-30.477 3.123-79.423 28.009-119.47 56.863-38.394 42.7-57.403 64.907-80.767 119.815-10.41 29.034-21.27 49.522-33.462 58.66-4.508 2.864-9.027 4.544-13.434 4.08-12.995-1.375-18.09-16.447-22.069-31.27-3.98-14.824-8.868-34.435-19.263-36.76-13.956-3.118-31.026 25.482-43.456 11.747-5.712-8.84-4.714-26.777-.665-42.224 5.168-16.134 12.434-31.893 19.373-50.347 22.502-69.457 1.305-154.948-17.968-209.755-8.032-19.66-11.684-33.822-15.236-46.347-3.55-12.524-7.43-24.605-20.113-40.92-12.763-16.44-39.107-35.935-73.135-48.57"/>
                    <path d="M513.537-114.98c16.288 2.363 33.5 6.342 48.9 18.153 16.948 11.996 31.565 34.483 26.788 43.731-4.883 9.824-40.132.08-41.527 13.513-.465 9.935 29.224 25.456 55.34 38.943 26.118 13.486 53.133 31.28 64.68 51.869 14.871 26.519 5.877 40.354-13.069 37.997-15.21-1.892-36.739-10.189-60.858-16.869-11.357-3.17-23.74-5.284-37.469-3.7-77.468 39.166-141.143 167.383-219.98 211.97-8.609 1.11-15.643.57-21.467-1.776-29.034-11.69-43.936-37.035-50.88-71.697-6.115-30.52-19.633-62.439-43.863-86.553-13.476-9.618-28.601-16.51-45.48-21.614a152.167 152.167 0 0 0-19.554-4.28c-31.285 3.979-78.271 26.756-116.96 52.122-39.842 38.208-59.258 57.73-86.437 110.318-12.784 34.039-24.537 56.388-35.857 65.657-4.174 2.928-8.35 4.656-12.408 4.228-11.96-1.237-16.472-16.441-19.796-31.418-3.325-14.977-6.516-34.123-16.383-36.073-13.212-2.642-30.435 27.232-41.162 13.74-5.771-7.256-4.186-24.965.232-40.64 5.443-16.62 12.831-32.838 18.375-51.498 19.754-66.424-3.314-146.444-20.225-198.456-8.577-20.04-13.137-34.673-17.635-47.6-4.497-12.926-9.343-25.313-22.766-41.632-13.534-16.452-40.211-35.635-73.949-48.06"/>
                    <path d="M506.567-119.52c15.711 2.215 32.321 5.994 45.686 17.371 14.903 11.474 29.124 32.538 22.724 41.75-6.341 9.908-36.586.576-40.132 14.363-1.944 10.295 25.367 24.484 51.04 34.922 25.06 12.683 53.18 27.718 66.455 46.505 17.397 24.626 9.998 38.578-8.852 37.521-15.22-.824-37.521-7.398-62.27-12.155-11.658-2.23-24.267-3.366-37.743-1.057-70.64 52.7-131.953 171.404-202.594 209.734-6.727.11-13.396-.175-18.602-2.452-25.942-11.368-40.729-35.936-49.77-70.498-7.86-30.065-22.979-61.498-47.664-84.94-13.565-9.429-28.537-16.225-45.226-21.367a159.35 159.35 0 0 0-19.337-4.418c-30.836 4.608-75.148 25.213-110.508 50.654-41.685 29.97-61.735 46.806-91.98 95.684-15.204 35.043-29.71 64.13-40.834 73.204-3.88 3.17-7.732 4.946-11.442 4.577-10.94-1.094-14.77-16.483-16.79-31.18-2.018-14.697-2.832-32.237-13.343-33.574-12.472-3.762-30.498 26.54-40.121 14.147-5.18-6.669-3.007-24.31 1.706-40.475 5.814-16.335 13.254-31.856 17.688-50.02 15.76-64.62-8.804-139.267-23.696-188.457-9.127-20.33-14.554-35.365-19.966-48.65-5.411-13.286-11.246-25.933-25.398-42.204-14.269-16.415-41.279-35.233-74.7-47.41"/>
                    <path d="M499.596-124.017c15.141 2.061 31.138 5.655 42.363 16.726 14.564 10.765 26.745 30.752 20.758 39.588-7.695 10.01-35.265 1.427-38.78 14.85-3.445 10.68 20.42 24.41 44.667 34.308 24.246 9.898 51.679 22.64 66.476 39.477 19.749 22.47 13.888 36.353-4.81 36.676-15.182.264-38.128-4.519-63.415-7.198-11.901-1.258-24.675-1.369-37.754 1.554-62.624 65.234-120.148 171.694-182.692 204.316-6.341.317-12.683.26-17.28-2.071-22.973-11.627-38.088-35.455-49.323-69.758-9.628-29.425-26.37-60.092-51.52-82.6-13.661-9.105-28.48-15.658-44.968-20.679a165.21 165.21 0 0 0-19.083-4.381c-29.425 4.989-70.392 23.601-104.309 45.501C20.011 148.087-.33 162.122-33.3 206.361c-17.704 32.813-33.822 71.634-46.933 81.183-4.313 2.77-8.308 4.418-11.722 4.075-10.088-1.015-12.276-16.029-12.995-29.261.529-13.873.138-31.439-9.163-33.22-12.493-2.394-32.575 26.043-41.078 14.612-4.582-6.156-1.892-23.966 3.509-39.106 5.919-15.416 12.746-30.567 17.83-47.917 10.163-62.592-14.913-131.726-29.187-179.346-9.666-20.526-15.939-35.91-22.238-49.47-6.3-13.56-13.085-26.45-27.94-42.626-14.993-16.325-42.278-34.737-75.392-46.633"/>
                    <path d="M492.626-128.503c14.565 1.908 29.959 5.31 40.787 15.89 12.335 10.39 22.291 29.521 16.731 37.987C543-64.986 516.27-72.38 513.3-59.533c-3.028 10.29 15.896 24.595 37.817 32.765C574.96-17.83 600.75-6.945 616.51 7.905c21.44 20.203 17.059 33.907-1.411 35.582-15.093 1.363-38.579-1.5-64.22-2.045-12.075-.26-24.944.703-37.521 4.228-53.714 77.906-105.657 167.429-162.034 196.754-6.003.491-11.965.618-16.779-.708-19.506-13.577-35.26-36.703-48.73-70.546-11.4-28.622-29.748-58.28-55.373-79.64-13.74-8.667-28.432-14.866-44.703-19.633a173.924 173.924 0 0 0-18.808-4.185c-27.338 5.131-64.363 22.042-96.414 40.724-37.744 22.01-57.561 33.531-92.673 72.617-19.437 29.72-38.53 73.372-51.72 89.084-4.419 2.695-8.514 4.227-11.939 3.794-10.125-1.316-10.215-15.199-9.676-28.395.539-13.195.814-29.943-8.25-31.808-12.154-2.5-33.24 24.473-40.882 13.74-4.117-5.813-.592-22.264 4.804-36.628 5.168-15.685 11.024-30.757 13.28-47.626 8.038-60.065-17.423-123.746-30.99-169.374-10.21-20.61-17.301-36.258-24.457-50.046-7.155-13.788-14.876-26.846-30.403-42.87-15.674-16.181-43.218-34.133-75.75-45.775"/>
                    <path d="M485.655-133.048c13.989 1.76 28.78 4.973 39.218 15.061C535.31-107.898 543.45-89.555 537.25-81.2c-6.59 9.275-31.238 2.563-34.88 15.283-2.51 9.856 13.873 23.972 33.796 32.084 19.924 8.112 45.909 16.705 61.007 29.562 21.99 18.586 19.025 31.978.84 35-14.94 2.48-38.853 1.623-64.706 3.288-12.154.787-24.41 2.41-36.295 6.178-43.92 85.136-90.69 161.49-141.587 187.685a21.022 21.022 0 0 1-13.545-3.424c-19.215-12.155-35.814-34.483-51.547-67.644-13.116-27.66-33.034-56.092-59.125-76.147-13.85-8.133-28.39-13.878-44.439-18.28a180.134 180.134 0 0 0-18.496-3.853c-24.944 5.02-57.524 20.563-87.277 36.465-35.021 18.692-54.247 28.056-89.538 61.83-21.271 26.371-43.187 66.55-57.318 93.661-4.582 4.26-8.71 6.051-12.112 5.813-9.624-1.553-8.768-14.776-7.87-27.56.899-12.783 1.475-28.637-7.852-29.72-11.156-3.129-31.75 23.141-38.922 12.884-3.869-5.533-.444-21.435 4.1-36.359 4.445-14.797 9.09-29.996 12.23-45.295 3.498-56.742-21.477-115.206-38.843-160.126-8.138-21.054-16.023-36.856-24.008-50.802-8.038-14.03-16.61-27.116-32.765-42.933-16.34-15.991-44.101-33.43-72.887-45.511"/>
                    <path d="M478.68-137.561c13.417 1.585 27.607 4.63 37.648 14.226 10.04 9.597 16.012 27.29 9.449 35.408-7.695 9.512-28.876 2.769-33.537 15.563-3.118 9.867 13.143 22.803 28.358 31.317 18.644 7.69 41.622 15.326 57.38 26.307 20.574 17.128 18.941 30.091 1.132 34.456-14.723 3.605-38.917 4.836-62.967 7.103-11.373 1.68-23.047 3.831-34.35 7.81-35.234 90.586-77.49 155.73-122.273 176.747-4.063-1.025-8.064-2.346-11.843-4.645-18.85-11.478-36.416-32.924-54.4-65.234-14.77-26.54-36.2-53.571-62.735-72.19-13.935-7.52-28.336-12.746-44.158-16.683a184.435 184.435 0 0 0-18.212-3.414c-22.676 4.535-50.479 19.067-77.51 32.665-31.798 16.002-50.337 23.554-84.386 52.376-21.92 22.804-46.41 58.66-61.804 86.215-5.375 9.64-9.698 15.854-13.08 17.085-9.11-.586-7.97-13.38-6.965-25.641 1.004-12.26 1.057-28.13-7.272-29.568-11.145-1.934-30.873 22.957-37.801 12.99-3.747-5.39-.761-20.494 2.975-34.916 3.372-14.57 7.25-28.458 7.927-43.482 2.33-53.466-22.138-107.068-40.76-151.55a341.206 341.206 0 0 0-26.223-50.902c-8.852-14.126-18.285-27.247-35.054-42.806-16.958-15.716-44.92-32.622-68.172-45.448"/>
                    <path d="M471.71-142.08c12.84 1.459 26.423 4.292 36.072 13.402 9.65 9.111 13.276 26.313 7.193 34.076-7.13 9.1-27.317 3.07-31.492 15.294-3.64 9.866 10.718 22.513 25.367 30.318 14.871 8.144 35.265 15.13 49.38 25.51 20.51 15.077 17.794 28.378.803 33.88-14.136 4.581-36.522 6.727-60.14 10.96-11.124 1.992-22.724 4.989-33.473 9.47-24.954 89.787-63.067 146.566-101.904 161.447a42.547 42.547 0 0 1-11.484-4.349c-18.676-10.802-37.273-31.238-57.497-62.502-16.346-25.271-39.192-50.733-66.133-67.813-14.01-6.87-28.273-11.505-43.863-14.913-5.776-1.264-11.769-2.114-17.894-2.88-21.028 3.62-43.894 17.397-67.813 29.277-28.088 13.946-45.871 20.076-77.764 44.528-21.297 19.437-46.87 50.47-64.373 74.662-5.74 8.921-10.5 16.383-13.798 19.85-9.766 10.252-8.857-2.114-8.308-13.18 1.02-11.886.788-26.926-7.43-28.69-11.034-2.368-29.166 21.709-35.968 12.307-3.699-5.084-1.585-19.913 1.38-33.293 2.33-14.147 4.967-28.157 5.2-41.892.83-48.868-24.31-99.627-44.175-143.39a327.973 327.973 0 0 0-28.384-50.706c-9.64-14.142-19.897-27.237-37.241-42.468-17.545-15.41-45.628-31.708-63.1-45.221"/>
                    <path d="M464.739-146.593c12.265 1.306 25.245 3.948 34.503 12.567 9.26 8.62 12.493 25.002 5.327 32.85-7.118 8.788-24.43 2.732-29.98 15.088-3.229 9.412 8.128 22.46 22.254 29.737 14.126 7.277 30.556 14.633 41.902 24.515 19.585 14.116 18 26.99 1.549 33.537-13.783 5.485-36.153 9.312-59.3 14.686-10.236 2.553-20.32 5.914-25.562 14.686-20.695 79.995-54.686 130.2-89.385 141.123a44.132 44.132 0 0 1-11.235-4.06c-18.65-10.098-38.304-29.403-60.727-59.425-17.835-23.877-41.997-47.631-69.298-63.094-14.067-6.136-28.188-10.168-43.524-12.99-5.687-1.057-11.553-1.728-17.556-2.283-20.209 2.642-38.53 15.389-59.004 26.096-24.06 12.583-40.972 17.688-69.916 38.478-20.034 16.504-44.645 42.927-63.105 63.722-6.235 7.727-11.478 14.269-15.198 18.497-11.024 12.614-10.105 2.262-10.168-5.956.264-8.456-1.274-18.449-9.835-19.855-10.453-3.128-26.989 19.606-33.938 10.57-3.763-4.894-2.642-19.3-.899-32.86 1.681-12.816 3.726-25.578 4.09-39.012-1.77-45.448-27.564-93.317-48.618-136.097a319.861 319.861 0 0 0-30.482-50.204c-10.39-14.073-21.446-27.079-39.324-41.94-18.095-15.04-46.082-30.751-57.65-44.835"/>
                    <path d="M457.768-151.111c11.69 1.152 24.067 3.61 32.929 11.737 8.862 8.128 12.044 23.623 5.39 31.074-7.8 8.741-22.808 2.711-28.648 14.797-4.703 9.772 6.342 21.953 18.729 29.177s27.597 14.036 35.444 24.42c16.774 13.968 14.539 27.127-1.32 34.684-13.382 6.379-34.224 10.902-55.437 16.747-9.734 3.076-15.289 10.247-18.1 20.367-18.211 69.927-48.582 113.035-79.873 119.524a46.997 46.997 0 0 1-11.098-3.741c-18.734-9.354-39.44-27.402-64.013-56.018-19.215-22.354-44.582-44.275-72.179-58.063-14.099-5.39-28.077-8.773-43.149-10.971-5.591-.82-11.336-1.29-17.207-1.633-20.552 1.496-35.18 12.969-51.943 22.951C87.655 55.663 71.695 60.161 46.47 78.06c-18.158 13.968-40.782 36.27-58.66 53.904-6.167 6.58-11.557 12.155-15.6 15.886-12.007 11.06-11.457 2.796-12.26-3.61-.804-6.405-4.55-11.626-13.74-9.063-10.533-2.166-25.975 18.143-33.226 9.264-3.937-4.814-3.53-18.02-2.383-30.387.703-12.545 2.457-23.78 1.5-36.184-3.397-44.19-29.762-89.073-51.963-130.622a315.179 315.179 0 0 0-32.496-49.417c-11.098-13.935-22.93-26.777-41.3-41.22-18.66-14.623-43.678-30.033-51.87-44.302"/>
                    <path d="M450.798-155.63c11.097 1.005 22.888 3.272 31.354 10.908 8.466 7.636 11.594 22.243 5.459 29.304-7.203 8.275-21.197 2.684-26.572 14.152-4.375 9.306 3.7 21.942 14.216 29.187 10.448 7.436 25.261 13.381 32.506 23.19 12.319 15.024 9.307 28.595-5.739 36.802-12.789 6.97-32.696 12.208-51.79 17.566-6.384 5.438-9.872 12.953-12.017 22.725-16.245 63.506-43.26 98.453-72.437 100.784-3.446.275-7.071-.687-10.86-2.4-18.899-8.54-40.619-25.218-67.28-52.207-20.478-20.726-46.923-40.692-74.752-52.778-14.115-4.608-27.935-7.33-42.732-8.878-5.49-.571-11.098-.82-16.837-.946-21.667.719-34.218 10.57-47.271 19.976C90.72 42.768 75.923 47.033 55.027 62.77 39.28 74.756 19.588 93.559 2.926 108.393c-5.856 5.539-11.098 10.269-15.168 13.503-12.154 9.613-12.968 3.356-15.267-1.247-2.299-4.603-7.927-7.843-18.031-2.035-9.983-1.38-24.072 17.471-31.867 9.19-3.921-5.057-4.17-17.19-3.44-28.215.306-11.32 1.162-22.528-.529-34.625-6.035-43.07-32.886-84.973-56.155-125.046a313.123 313.123 0 0 0-34.42-48.34c-11.795-13.713-24.335-26.328-43.16-40.28-19.087-14.146-37.8-29.594-45.595-43.65"/>
                    <path d="M443.843-160.143c10.538.851 21.71 2.928 29.78 10.078 8.069 7.15 11.145 20.859 5.522 27.523-6.596 7.816-19.554 2.642-24.49 13.534-4 8.815 2.41 21.35 11.685 28.537 9.275 7.187 20.742 13.836 27.602 23 11.098 14.855 5.776 29.683-8.567 38.36-12.276 7.426-30.122 12.156-46.632 17.44-4.54 5.776-7.367 13.64-9.433 22.244-14.269 56.017-38.335 84.285-66.497 86.695-3.33.28-6.928-.576-10.76-2.114-19.11-7.668-41.791-22.867-70.471-48.064-21.614-18.993-49-36.946-76.998-47.272a207.022 207.022 0 0 0-42.278-6.738 139.125 139.125 0 0 0-16.52.005c-21.054 1.221-35.587 8.393-45.363 17.107-11.463 10.226-24.981 14.596-41.03 28.701-12.895 10.48-28.86 26.424-43.684 38.948A173.079 173.079 0 0 1 1.49 99.325c-12.029 8.376-14.602 3.953-18.672 1.01-4.069-2.944-11.774-4.329-21.244.602-9.417-.73-21.382 18.438-29.066 10.57-4.185-4.281-5.19-15.855-5.316-26.726-.529-11.097-.529-22.163-2.95-33.859C-84.287 9.306-111.513-29.6-135.76-67.983a312.806 312.806 0 0 0-36.22-46.96 265.508 265.508 0 0 0-44.92-39.16c-19.522-13.618-31.455-29.028-38.98-42.869"/>
                    <path d="M436.851-164.661c9.967.703 20.531 2.59 28.215 9.248 7.684 6.659 10.691 19.48 5.58 25.747-5.992 7.356-17.967 2.642-22.411 12.91-3.626 8.33 2.452 20.146 9.396 27.761 7.768 7.256 18.718 13.36 23.157 22.93 10.57 14.454 4.852 29.51-8.984 38.436-11.917 7.705-28.696 12.313-43.746 19.178-3.853 6.236-6.04 14.348-8.075 21.741-12.826 48.255-34.8 69.547-62.19 72.1-3.235.3-6.828-.434-10.707-1.787-19.342-6.727-42.923-20.34-73.526-43.578C250.94 22.85 222.758 7.001 194.665-1.56a210.23 210.23 0 0 0-41.75-4.571c-5.38-.08-10.762.148-16.118.682C116.351-3.431 98.03 1.949 89.087 9.01c-7.652 9.93-19.611 14.654-30.498 27.395-9.703 9.302-21.355 22.947-33.822 33.627a116.073 116.073 0 0 1-12.82 9.861c-11.59 7.399-16.187 4.645-22.16 3.25-5.97-1.395-15.198-2.008-22.38-.951-8.857-.153-18.782 18.983-26.492 11.954-4.222-3.826-5.988-14.961-6.95-25.53-1.32-10.76-2.182-21.583-5.236-32.765-10.86-39.926-38.34-75.852-63.448-112.342a313.91 313.91 0 0 0-37.892-45.322 302.374 302.374 0 0 0-45.876-37.87c-19.268-13.064-25.335-28.373-32.59-41.976"/>
                    <path d="M429.88-169.195c9.392.528 19.353 2.246 26.64 8.413 7.289 6.167 10.243 18.1 5.65 23.977-5.395 6.87-16.34 2.615-20.335 12.281-3.256 7.843 2.489 18.94 9.015 26.154 6.527 7.214 14.565 13.967 18.94 22.862 7.341 15.51 2.236 30.244-11.097 39.36-11.59 7.927-28.178 13-41.559 20.663-3.113 5.438-5.084 11.822-7.065 18.084-11.917 40.46-32.49 58.132-59.305 60.933-3.171.333-6.765-.28-10.691-1.427-19.585-5.723-43.974-17.651-76.4-38.758-23.486-15.289-52.32-28.976-80.44-35.767a214.273 214.273 0 0 0-41.146-2.378 144.15 144.15 0 0 0-15.685 1.39C106.601-10.581 85.14-5.571 73.307.512c-5.86 8.709-15.95 13.851-21.55 25.155-6.29 8.26-13.27 19.897-23 29.134a74.89 74.89 0 0 1-11.04 8.62C6.863 70.148.188 68.938-7.649 69.007c-7.837.068-14.327-6.733-20.515-6.485-8.308.333-16.309 19.12-23.982 12.884-4.191-3.398-6.696-14.015-8.403-24.177-2.06-10.326-3.7-20.79-7.367-31.444-13.01-37.912-40.602-70.883-66.434-105.303a316.024 316.024 0 0 0-39.413-43.413c-13.603-12.573-28.05-24.11-44.338-36.465-16.552-12.583-21.181-27.48-28.157-40.866"/>
                    <path d="M422.91-173.693c8.815.397 18.174 1.908 25.066 7.584 6.89 5.676 9.792 16.72 5.712 22.196-4.788 6.436-14.723 2.594-18.253 11.663-2.88 7.35 2.526 17.735 8.635 24.542 6.11 6.807 13.423 13.286 15.125 22.724 6.696 15.326-.528 31.18-13.455 40.48-11.357 8.155-26.333 12.436-38.826 18.65-3.367 4.83-5.634 10.57-7.59 15.69-11.885 32.375-31.295 48.995-57.703 52.124-3.118.37-6.722-.095-10.701-1.057-19.818-4.656-44.92-14.797-79.06-33.627-24.203-13.333-53.549-24.838-81.605-29.842a217.946 217.946 0 0 0-40.497-.233 146.444 146.444 0 0 0-15.225 2.082c-19.141 3.636-39.635 9.375-59.32 15.294-7.31 7.848-16.537 13.344-16.87 22.809-2.785 7.113-4.962 16.742-11.716 24.759a45.596 45.596 0 0 1-8.947 7.657C7.85 56.096-.753 56.44-9.663 57.111c-5.11-5.116-9.723-15.68-15.51-15.135-7.769.787-14.005 18.93-21.604 13.428-4.154-3.002-7.309-13.006-9.718-22.677-2.743-9.808-5.132-19.812-9.323-29.842-14.903-35.683-42.5-65.737-68.901-97.92a319.037 319.037 0 0 0-40.761-41.263c-14.105-12.044-29.098-23.094-47.869-35.381-6.68-11.695-11.362-26.117-18.095-39.265"/>
                    <path d="M415.94-178.18c8.239.244 16.995 1.586 23.496 6.75 6.5 5.162 9.338 15.325 5.77 20.43-4.185 5.972-13.1 2.568-16.176 11.034-2.505 6.87 2.574 16.53 8.26 22.936 5.686 6.405 12.467 12.525 14.057 21.392 3.203 16.568-3.61 32.089-16.17 41.342-11.099 8.181-25.896 12.61-38.875 17.968-3.768 4.133-6.706 7.832-8.667 12.092-12.683 25.942-31.148 41.611-57.27 45.2-3.086.422-6.706.11-10.728-.598-20.024-3.535-45.713-11.837-81.464-28.199-24.774-11.346-54.469-20.61-82.393-23.865a221.735 221.735 0 0 0-39.794 1.913 149.874 149.874 0 0 0-14.755 2.748C82.777-22.61 63.874-16.584 46.117-12.24 33.55-7.89 26.65-6.068 21.734 9.1c-1.739 8.117-.576 16.815-4.228 23.606a25.366 25.366 0 0 1-6.664 6.844c-8.535 6.03-16.383 4.84-20.415-2.273-3.667-7.546-8.746-17.222-14.142-16.44-7.25 1.057-11.9 18.274-19.394 13.47-4.107-2.642-7.832-11.948-10.876-21.048-3.35-9.206-6.405-18.655-11.061-28.01-16.573-33.245-44.016-60.435-70.841-90.251-13.894-15.453-27.565-27.607-41.913-38.89-14.554-11.442-30.033-21.948-43.657-33.49-3.964-11.367-8.757-25.297-15.194-38.192"/>
                    <path d="M408.964-182.724c7.663.095 15.817 1.226 21.92 5.924 6.105 4.698 8.89 13.957 5.814 18.65-3.588 5.512-11.489 2.552-14.1 10.416-2.113 6.378 2.611 15.325 7.885 21.323 5.274 5.999 11.505 11.764 12.985 20.03 2.922 16.276-6.3 32.886-18.734 42.214-11.098 8.328-24.437 11.848-37.553 15.013-5.005 2.23-8.984 4.994-12.028 8.25C360.699-18.381 342.916-3.542 316.968.628c-3.065.492-6.7.349-10.754-.127C286.02-1.85 259.85-8.234 222.63-22c-25.187-9.322-55.087-16.382-82.806-17.867a231.85 231.85 0 0 0-38.874 3.958c-4.708.877-9.058 1.802-13.412 2.912-16.193 4.116-31.344 8.455-42.473 7.953-12.303-1.141-21.166-2.759-27.312 9.137C14.78-5.338 11.978 9.776 8.062 18.67c-1.464 2.975-3.001 5.131-4.624 5.982-4.856 2.548-8.72-4.29-12.805-11.098-4.085-6.806-9.512-15.441-14.527-14.48C-30.648.37-33.935 16.44-41.297 12.286c-4.037-2.293-8.25-10.86-11.848-19.31-3.842-8.54-7.483-17.37-12.535-25.964-17.968-30.651-45.11-55.04-72.142-82.378-14.194-14.358-28.135-25.688-42.848-36.305-14.945-10.776-29.451-20.568-35.851-31.444-4.228-11.003-9.127-24.447-15.289-37.104"/>
                </g>
            </g>
            <path fill="url(#ibbjome4ic)" fill-rule="nonzero" opacity=".35" style="mix-blend-mode:multiply" d="M218.739 246.34h1228.199v182.47H218.739z" transform="translate(-675.935 -266.862)"/>
            <path fill="url(#341n4yow3d)" fill-rule="nonzero" opacity=".35" style="mix-blend-mode:multiply" transform="rotate(180 494.87 806.331)" d="M218.739 806.501h1228.199v266.523H218.739z"/>
        </g>
    </g>
</svg>
